<svg width="20" height="20" viewBox="0 0 20 20" fill="none" xmlns="http://www.w3.org/2000/svg">
<path d="M9.99995 16.8C6.23995 16.8 3.19995 13.76 3.19995 10C3.19995 6.24 6.23995 3.2 9.99995 3.2C13.76 3.2 16.8 6.24 16.8 10C16.8 13.76 13.76 16.8 9.99995 16.8ZM9.99995 4C6.67995 4 3.99995 6.68 3.99995 10C3.99995 13.32 6.67995 16 9.99995 16C13.32 16 16 13.32 16 10C16 6.68 13.32 4 9.99995 4Z" fill="white"/>
<path d="M12.1201 13.48L9.6001 10.96V6.4H10.4001V10.64L12.6801 12.92L12.1201 13.48Z" fill="white"/>
</svg>
