<svg width="30" height="30" viewBox="0 0 30 30" fill="none" xmlns="http://www.w3.org/2000/svg">
<path d="M21.657 10.1219C22.1402 9.78138 22.5941 9.40093 23.0138 8.98456C23.8946 8.10369 24.4836 7.02031 24.6726 5.93356C24.8801 4.74219 24.5764 3.63519 23.8389 2.89944C23.2517 2.31219 22.4552 2 21.5355 2C20.2277 2 18.8473 2.62775 17.7521 3.72294C15.9988 5.47625 14.9779 7.89444 14.4277 9.62244C14.0211 7.88769 13.2094 5.54544 11.6316 3.96763C10.7861 3.12219 9.70444 2.68681 8.68181 2.68681C7.8465 2.68681 7.05337 2.97706 6.45937 3.56937C5.14144 4.88731 5.32031 7.20256 6.85763 8.73988C7.40606 9.28831 8.04731 9.74394 8.72231 10.1219H3V16.8719H4.6875V28.6844H24.9375V16.8719H26.625V10.1219H21.6553H21.657ZM19.0937 5.0645C19.8244 4.33381 20.7373 3.89675 21.5338 3.89675C21.8156 3.89675 22.2122 3.95581 22.4957 4.23931C23.1825 4.92613 22.7961 6.51575 21.6705 7.64131C20.5112 8.80062 18.9536 9.59713 17.5986 10.1219H16.2621C16.7514 8.60488 17.634 6.52419 19.0937 5.0645ZM7.482 5.92681C7.46344 5.6855 7.48031 5.23494 7.80431 4.91262C8.04243 4.69133 8.35864 4.57359 8.6835 4.58525C9.24375 4.58525 9.82931 4.85019 10.29 5.30919C11.1827 6.20187 11.9184 7.62275 12.4163 9.41994L12.4551 9.56506L12.3099 9.52625C10.5144 9.02844 9.09356 8.29269 8.19919 7.4C7.79418 7.00915 7.53968 6.4882 7.48031 5.9285L7.482 5.92681ZM13.1267 26.9969H6.37669V16.0282H13.1267V26.9969ZM13.1267 15.1844H4.68919V11.8094H13.1267V15.1844ZM23.2517 26.9969H16.5017V16.0282H23.2517V26.9969ZM24.9392 15.1844H16.5017V11.8094H24.9392V15.1844Z" fill="#7145B9"/>
</svg>
