<svg width="30" height="30" viewBox="0 0 30 30" fill="none" xmlns="http://www.w3.org/2000/svg">
<path d="M17.5 10C16.8125 10 16.25 9.4375 16.25 8.75C16.25 8.0625 16.8125 7.5 17.5 7.5C18.1875 7.5 18.75 8.0625 18.75 8.75C18.75 9.4375 18.1875 10 17.5 10ZM15 15V23.75H6.25V15H15ZM15.975 12.5H5.275C4.4375 12.5 3.75 13.1875 3.75 14.025V24.725C3.75 25.5625 4.4375 26.25 5.275 26.25H15.975C16.8125 26.25 17.5 25.5625 17.5 24.725V14.025C17.5 13.1875 16.8125 12.5 15.975 12.5ZM24.725 3.75H14.025C13.1875 3.75 12.5 4.4375 12.5 5.275V10H15V6.25H23.75V15H20V17.5H24.725C25.5625 17.5 26.25 16.8125 26.25 15.975V5.275C26.25 4.4375 25.5625 3.75 24.725 3.75ZM21.25 10C20.5625 10 20 9.4375 20 8.75C20 8.0625 20.5625 7.5 21.25 7.5C21.9375 7.5 22.5 8.0625 22.5 8.75C22.5 9.4375 21.9375 10 21.25 10ZM21.25 13.75C20.5625 13.75 20 13.1875 20 12.5C20 11.8125 20.5625 11.25 21.25 11.25C21.9375 11.25 22.5 11.8125 22.5 12.5C22.5 13.1875 21.9375 13.75 21.25 13.75ZM8.75 18.75C8.0625 18.75 7.5 18.1875 7.5 17.5C7.5 16.8125 8.0625 16.25 8.75 16.25C9.4375 16.25 10 16.8125 10 17.5C10 18.1875 9.4375 18.75 8.75 18.75ZM12.5 22.5C11.8125 22.5 11.25 21.9375 11.25 21.25C11.25 20.5625 11.8125 20 12.5 20C13.1875 20 13.75 20.5625 13.75 21.25C13.75 21.9375 13.1875 22.5 12.5 22.5Z" fill="url(#paint0_diamond)"/>
<defs>
<radialGradient id="paint0_diamond" cx="0" cy="0" r="1" gradientUnits="userSpaceOnUse" gradientTransform="translate(9.46875 15.9078) rotate(0.232559) scale(13.1564 68.3)">
<stop stop-color="#7635DF" stop-opacity="0.76"/>
<stop offset="1" stop-color="#3F08B6" stop-opacity="0.94"/>
</radialGradient>
</defs>
</svg>
