<svg width="30" height="30" viewBox="0 0 30 30" fill="none" xmlns="http://www.w3.org/2000/svg">
<path d="M27.5 15V25C27.5 25.663 27.2366 26.2989 26.7678 26.7678C26.2989 27.2366 25.663 27.5 25 27.5H5C4.33696 27.5 3.70107 27.2366 3.23223 26.7678C2.76339 26.2989 2.5 25.663 2.5 25V15C2.16848 15 1.85054 14.8683 1.61612 14.6339C1.3817 14.3995 1.25 14.0815 1.25 13.75V10C1.25 9.33696 1.51339 8.70107 1.98223 8.23223C2.45107 7.76339 3.08696 7.5 3.75 7.5H7.7125C7.57123 7.09842 7.49937 6.67571 7.5 6.25C7.5 5.25544 7.89509 4.30161 8.59835 3.59835C9.30161 2.89509 10.2554 2.5 11.25 2.5C12.5 2.5 13.6 3.125 14.2875 4.05V4.0375L15 5L15.7125 4.0375V4.05C16.4 3.125 17.5 2.5 18.75 2.5C19.7446 2.5 20.6984 2.89509 21.4017 3.59835C22.1049 4.30161 22.5 5.25544 22.5 6.25C22.5006 6.67571 22.4288 7.09842 22.2875 7.5H26.25C26.913 7.5 27.5489 7.76339 28.0178 8.23223C28.4866 8.70107 28.75 9.33696 28.75 10V13.75C28.75 14.0815 28.6183 14.3995 28.3839 14.6339C28.1495 14.8683 27.8315 15 27.5 15ZM5 25H13.75V15H5V25ZM25 25V15H16.25V25H25ZM11.25 5C10.9185 5 10.6005 5.1317 10.3661 5.36612C10.1317 5.60054 10 5.91848 10 6.25C10 6.58152 10.1317 6.89946 10.3661 7.13388C10.6005 7.3683 10.9185 7.5 11.25 7.5C11.5815 7.5 11.8995 7.3683 12.1339 7.13388C12.3683 6.89946 12.5 6.58152 12.5 6.25C12.5 5.91848 12.3683 5.60054 12.1339 5.36612C11.8995 5.1317 11.5815 5 11.25 5ZM18.75 5C18.4185 5 18.1005 5.1317 17.8661 5.36612C17.6317 5.60054 17.5 5.91848 17.5 6.25C17.5 6.58152 17.6317 6.89946 17.8661 7.13388C18.1005 7.3683 18.4185 7.5 18.75 7.5C19.0815 7.5 19.3995 7.3683 19.6339 7.13388C19.8683 6.89946 20 6.58152 20 6.25C20 5.91848 19.8683 5.60054 19.6339 5.36612C19.3995 5.1317 19.0815 5 18.75 5ZM3.75 10V12.5H13.75V10H3.75ZM16.25 10V12.5H26.25V10H16.25Z" fill="url(#paint0_diamond)"/>
<defs>
<radialGradient id="paint0_diamond" cx="0" cy="0" r="1" gradientUnits="userSpaceOnUse" gradientTransform="translate(8.23958 16.0087) rotate(0.211417) scale(16.08 75.889)">
<stop stop-color="#7635DF" stop-opacity="0.76"/>
<stop offset="1" stop-color="#3F08B6" stop-opacity="0.94"/>
</radialGradient>
</defs>
</svg>
