<svg width="42" height="40" viewBox="0 0 42 40" fill="none" xmlns="http://www.w3.org/2000/svg">
<g clip-path="url(#clip0)">
<path d="M20.9308 5C16.8154 5 12.8685 6.58035 9.95847 9.3934C7.04842 12.2064 5.41357 16.0218 5.41357 20C5.41357 23.9782 7.04842 27.7936 9.95847 30.6066C12.8685 33.4196 16.8154 35 20.9308 35C24.3791 35 27.6894 33.9 30.4136 31.9L27.9308 29.5C26.1267 30.7454 24.0024 31.4859 21.7913 31.6403C19.5802 31.7948 17.3678 31.3571 15.3972 30.3754C13.4266 29.3936 11.7741 27.9059 10.6212 26.0755C9.46824 24.2451 8.85951 22.143 8.86185 20C8.86185 13.55 14.2584 8.33333 20.9308 8.33333C27.6032 8.33333 32.9998 13.55 32.9998 20H27.8274L34.7239 26.6667L41.6205 20H36.4481C36.4481 16.0218 34.8132 12.2064 31.9032 9.3934C28.9931 6.58035 25.0462 5 20.9308 5ZM13.5343 21.9333C13.3791 22.05 13.3274 22.25 13.4136 22.4167L14.9653 25C15.0687 25.2 15.2756 25.2 15.4481 25.2L17.3963 24.45C17.8101 24.7167 18.2412 24.95 18.6894 25.15L18.9998 27.1333C19.0343 27.3167 19.2067 27.45 19.3791 27.45H22.4825C22.655 27.5 22.8446 27.35 22.8791 27.1667L23.1894 25.2C23.655 25 24.1032 24.75 24.4998 24.45L26.4308 25.2C26.6205 25.2667 26.8274 25.1833 26.9136 25L28.4653 22.5C28.5515 22.3 28.4998 22.1 28.3619 21.9833L26.6377 20.75C26.6894 20.25 26.6894 19.75 26.6377 19.25L28.3619 17.9833C28.517 17.8667 28.5515 17.6833 28.4653 17.5L26.9136 14.9167C26.8101 14.75 26.6205 14.6833 26.4308 14.75L24.4998 15.5C24.086 15.2167 23.6377 15 23.1722 14.8L22.8791 12.8167C22.8585 12.7289 22.8085 12.6502 22.7367 12.5929C22.665 12.5356 22.5756 12.5029 22.4825 12.5H19.4481C19.2756 12.5 19.1205 12.6167 19.086 12.7833L18.7929 14.75C18.3446 14.95 17.8791 15.2 17.4825 15.5L15.4998 14.8C15.4056 14.7675 15.3023 14.77 15.21 14.807C15.1176 14.8439 15.0427 14.9127 14.9998 15L13.4308 17.5C13.3446 17.7 13.3963 17.9 13.5343 18.0167L15.2584 19.25C15.2239 19.5 15.2239 19.75 15.2584 20C15.2412 20.25 15.2412 20.5 15.2584 20.75L13.5343 21.9833V21.9333ZM20.9308 22.5C19.4825 22.5 18.3446 21.3667 18.3446 20C18.3446 18.6167 19.4998 17.5 20.9308 17.5C22.3619 17.5 23.517 18.6167 23.517 20C23.517 21.3833 22.3619 22.5 20.9308 22.5Z" fill="url(#paint0_diamond)"/>
</g>
<defs>
<radialGradient id="paint0_diamond" cx="0" cy="0" r="1" gradientUnits="userSpaceOnUse" gradientTransform="translate(14.6162 21.2104) rotate(0.192692) scale(21.1711 91.0669)">
<stop stop-color="#7635DF" stop-opacity="0.76"/>
<stop offset="1" stop-color="#3F08B6" stop-opacity="0.94"/>
</radialGradient>
<clipPath id="clip0">
<rect width="41.3793" height="40" fill="white" transform="translate(0.241211)"/>
</clipPath>
</defs>
</svg>
