<svg width="30" height="30" viewBox="0 0 30 30" fill="none" xmlns="http://www.w3.org/2000/svg">
<path d="M29.375 21.25L23.125 27.5L18.75 23.125L20.625 21.25L23.125 23.75L27.5 19.375L29.375 21.25ZM16.375 24.875C15.875 25 15.5 25 15 25C9.5 25 5 20.5 5 15C5 9.5 9.5 5 15 5C20.5 5 25 9.5 25 15C25 15.5 25 15.875 24.875 16.375C25.75 16.5 26.5 16.75 27.25 17.125C27.375 16.375 27.5 15.75 27.5 15C27.5 8.125 21.875 2.5 15 2.5C8.125 2.5 2.5 8.125 2.5 15C2.5 21.875 8.125 27.5 15 27.5C15.75 27.5 16.5 27.375 17.125 27.25C16.75 26.625 16.5 25.75 16.375 24.875ZM19.5 17.625L15.625 15.375V8.75H13.75V16.25L18.125 18.875C18.5 18.375 19 18 19.5 17.625Z" fill="url(#paint0_diamond)"/>
<defs>
<radialGradient id="paint0_diamond" cx="0" cy="0" r="1" gradientUnits="userSpaceOnUse" gradientTransform="translate(9.33073 16.0087) rotate(0.216334) scale(15.7145 75.889)">
<stop stop-color="#7635DF" stop-opacity="0.76"/>
<stop offset="1" stop-color="#3F08B6" stop-opacity="0.94"/>
</radialGradient>
</defs>
</svg>
