<svg width="30" height="30" viewBox="0 0 30 30" fill="none" xmlns="http://www.w3.org/2000/svg">
<path d="M27.6002 15.16C27.6002 13.48 26.2402 12.6 24.4002 12.6H19.0402C19.4402 11.16 19.6002 9.8 19.6002 8.6C19.6002 3.96 18.3202 3 17.2002 3C16.4802 3 15.9202 3.08 15.2002 3.48C14.9602 3.64 14.8802 3.8 14.8002 4.04L14.0002 8.36C13.1202 10.6 10.9602 12.6 9.2002 13.96V25.4C9.8402 25.4 10.4802 25.72 11.2802 26.12C12.1602 26.52 13.0402 27 14.0002 27H21.6002C23.2002 27 24.4002 25.72 24.4002 24.6C24.4002 24.36 24.4002 24.2 24.3202 24.04C25.2802 23.64 26.0002 22.84 26.0002 21.8C26.0002 21.32 25.9202 20.92 25.7602 20.52C26.4002 20.12 26.9602 19.4 26.9602 18.6C26.9602 18.12 26.7202 17.64 26.4802 17.24C27.1202 16.76 27.6002 15.96 27.6002 15.16ZM25.9202 15.16C25.9202 16.2 24.8802 16.28 24.7202 16.76C24.5602 17.32 25.3602 17.48 25.3602 18.44C25.3602 19.4 24.1602 19.4 24.0002 19.96C23.8402 20.6 24.4002 20.76 24.4002 21.72V21.88C24.2402 22.68 23.0402 22.76 22.8002 23.08C22.5602 23.48 22.8002 23.64 22.8002 24.52C22.8002 25 22.2402 25.32 21.6002 25.32H14.0002C13.3602 25.32 12.7202 25 11.9202 24.6C11.2802 24.28 10.6402 23.96 10.0002 23.8V15.4C12.0002 13.88 14.5602 11.64 15.5202 8.84V8.68L16.2402 4.68C16.5602 4.6 16.8002 4.6 17.2002 4.6C17.3602 4.6 18.0002 5.56 18.0002 8.6C18.0002 9.8 17.7602 11.08 17.3602 12.6H17.2002C16.7202 12.6 16.4002 12.92 16.4002 13.4C16.4002 13.88 16.7202 14.2 17.2002 14.2H24.4002C25.2002 14.2 25.9202 14.6 25.9202 15.16Z" fill="#7145B9"/>
<path d="M8.4 27H3.6C2.72 27 2 26.28 2 25.4V14.2C2 13.32 2.72 12.6 3.6 12.6H8.4C9.28 12.6 10 13.32 10 14.2V25.4C10 26.28 9.28 27 8.4 27ZM3.6 14.2V25.4H8.4V14.2H3.6Z" fill="#7145B9"/>
</svg>
