<svg width="361" height="52" viewBox="0 0 361 52" fill="none" xmlns="http://www.w3.org/2000/svg">
<path d="M74.4728 32.5479C73.0808 32.5479 71.8248 32.2599 70.7048 31.6839C69.5848 31.1079 68.7048 30.3079 68.0648 29.2839C67.4408 28.2599 67.1288 27.0999 67.1288 25.8039C67.1288 24.5239 67.4408 23.3719 68.0648 22.3479C68.7048 21.3239 69.5768 20.5319 70.6808 19.9719C71.8008 19.3959 73.0648 19.1079 74.4728 19.1079C75.8808 19.1079 77.1448 19.3959 78.2648 19.9719C79.3848 20.5319 80.2568 21.3239 80.8808 22.3479C81.5048 23.3559 81.8168 24.5079 81.8168 25.8039C81.8168 27.0999 81.5048 28.2599 80.8808 29.2839C80.2568 30.3079 79.3848 31.1079 78.2648 31.6839C77.1448 32.2599 75.8808 32.5479 74.4728 32.5479ZM74.4728 28.9239C75.2728 28.9239 75.9288 28.6519 76.4408 28.1079C76.9528 27.5479 77.2088 26.7799 77.2088 25.8039C77.2088 24.8439 76.9528 24.0919 76.4408 23.5479C75.9288 23.0039 75.2728 22.7319 74.4728 22.7319C73.6728 22.7319 73.0168 23.0039 72.5048 23.5479C71.9928 24.0919 71.7368 24.8439 71.7368 25.8039C71.7368 26.7799 71.9928 27.5479 72.5048 28.1079C73.0168 28.6519 73.6728 28.9239 74.4728 28.9239ZM92.2011 19.1079C93.8172 19.1079 95.1132 19.5879 96.0891 20.5479C97.0811 21.5079 97.5771 22.9559 97.5771 24.8919V32.3319H93.0171V25.6359C93.0171 23.8599 92.3051 22.9719 90.8811 22.9719C90.0971 22.9719 89.4651 23.2279 88.9851 23.7399C88.5211 24.2519 88.2891 25.0199 88.2891 26.0439V32.3319H83.7291V19.3239H88.0731V20.7399C88.5851 20.2119 89.1931 19.8119 89.8971 19.5399C90.6011 19.2519 91.3691 19.1079 92.2011 19.1079ZM100.24 14.5239H104.8V32.3319H100.24V14.5239ZM107.564 19.3239H112.124V32.3319H107.564V19.3239ZM109.844 17.8839C109.012 17.8839 108.34 17.6519 107.828 17.1879C107.316 16.7239 107.06 16.1479 107.06 15.4599C107.06 14.7719 107.316 14.1959 107.828 13.7319C108.34 13.2679 109.012 13.0359 109.844 13.0359C110.676 13.0359 111.348 13.2599 111.86 13.7079C112.372 14.1399 112.628 14.6999 112.628 15.3879C112.628 16.1079 112.372 16.7079 111.86 17.1879C111.348 17.6519 110.676 17.8839 109.844 17.8839ZM123.359 19.1079C124.975 19.1079 126.271 19.5879 127.247 20.5479C128.239 21.5079 128.735 22.9559 128.735 24.8919V32.3319H124.175V25.6359C124.175 23.8599 123.463 22.9719 122.039 22.9719C121.255 22.9719 120.623 23.2279 120.143 23.7399C119.679 24.2519 119.447 25.0199 119.447 26.0439V32.3319H114.887V19.3239H119.231V20.7399C119.743 20.2119 120.351 19.8119 121.055 19.5399C121.759 19.2519 122.527 19.1079 123.359 19.1079ZM144.881 25.8519C144.881 25.8839 144.857 26.2599 144.809 26.9799H135.353C135.545 27.6519 135.913 28.1719 136.457 28.5399C137.017 28.8919 137.713 29.0679 138.545 29.0679C139.169 29.0679 139.705 28.9799 140.153 28.8039C140.617 28.6279 141.081 28.3399 141.545 27.9399L143.945 30.4359C142.681 31.8439 140.833 32.5479 138.401 32.5479C136.881 32.5479 135.545 32.2599 134.393 31.6839C133.241 31.1079 132.345 30.3079 131.705 29.2839C131.081 28.2599 130.769 27.0999 130.769 25.8039C130.769 24.5239 131.073 23.3799 131.681 22.3719C132.305 21.3479 133.161 20.5479 134.249 19.9719C135.337 19.3959 136.561 19.1079 137.921 19.1079C139.217 19.1079 140.393 19.3799 141.449 19.9239C142.505 20.4519 143.337 21.2279 143.945 22.2519C144.569 23.2599 144.881 24.4599 144.881 25.8519ZM137.945 22.3479C137.241 22.3479 136.649 22.5479 136.169 22.9479C135.705 23.3479 135.409 23.8919 135.281 24.5799H140.609C140.481 23.8919 140.177 23.3479 139.697 22.9479C139.233 22.5479 138.649 22.3479 137.945 22.3479ZM153.432 32.5479C151.992 32.5479 150.704 32.2599 149.568 31.6839C148.432 31.1079 147.544 30.3079 146.904 29.2839C146.28 28.2599 145.968 27.0999 145.968 25.8039C145.968 24.5079 146.28 23.3559 146.904 22.3479C147.544 21.3239 148.432 20.5319 149.568 19.9719C150.704 19.3959 151.992 19.1079 153.432 19.1079C154.904 19.1079 156.176 19.4279 157.248 20.0679C158.32 20.6919 159.08 21.5639 159.528 22.6839L156 24.4839C155.408 23.3159 154.544 22.7319 153.408 22.7319C152.592 22.7319 151.912 23.0039 151.368 23.5479C150.84 24.0919 150.576 24.8439 150.576 25.8039C150.576 26.7799 150.84 27.5479 151.368 28.1079C151.912 28.6519 152.592 28.9239 153.408 28.9239C154.544 28.9239 155.408 28.3399 156 27.1719L159.528 28.9719C159.08 30.0919 158.32 30.9719 157.248 31.6119C156.176 32.2359 154.904 32.5479 153.432 32.5479ZM166.589 19.1079C168.749 19.1079 170.397 19.6039 171.533 20.5959C172.669 21.5719 173.237 23.0759 173.237 25.1079V32.3319H168.989V30.6519C168.333 31.9159 167.053 32.5479 165.149 32.5479C164.141 32.5479 163.269 32.3719 162.533 32.0199C161.797 31.6679 161.237 31.1959 160.853 30.6039C160.485 29.9959 160.301 29.3079 160.301 28.5399C160.301 27.3079 160.773 26.3559 161.717 25.6839C162.661 24.9959 164.117 24.6519 166.085 24.6519H168.677C168.597 23.2759 167.677 22.5879 165.917 22.5879C165.293 22.5879 164.661 22.6919 164.021 22.8999C163.381 23.0919 162.837 23.3639 162.389 23.7159L160.853 20.6199C161.573 20.1399 162.445 19.7719 163.469 19.5159C164.509 19.2439 165.549 19.1079 166.589 19.1079ZM166.421 29.6679C166.949 29.6679 167.413 29.5399 167.813 29.2839C168.213 29.0279 168.501 28.6519 168.677 28.1559V27.0279H166.709C165.381 27.0279 164.717 27.4679 164.717 28.3479C164.717 28.7479 164.869 29.0679 165.173 29.3079C165.477 29.5479 165.893 29.6679 166.421 29.6679ZM180.643 32.5479C179.555 32.5479 178.483 32.4279 177.427 32.1879C176.371 31.9319 175.523 31.6039 174.883 31.2039L176.251 28.0839C176.843 28.4519 177.547 28.7479 178.363 28.9719C179.179 29.1799 179.987 29.2839 180.787 29.2839C181.523 29.2839 182.043 29.2119 182.347 29.0679C182.667 28.9079 182.827 28.6839 182.827 28.3959C182.827 28.1079 182.635 27.9079 182.251 27.7959C181.883 27.6679 181.291 27.5479 180.475 27.4359C179.435 27.3079 178.547 27.1399 177.811 26.9319C177.091 26.7239 176.467 26.3399 175.939 25.7799C175.411 25.2199 175.147 24.4359 175.147 23.4279C175.147 22.5959 175.395 21.8599 175.891 21.2199C176.387 20.5639 177.107 20.0519 178.051 19.6839C179.011 19.2999 180.155 19.1079 181.483 19.1079C182.427 19.1079 183.363 19.2039 184.291 19.3959C185.219 19.5879 185.995 19.8599 186.619 20.2119L185.251 23.3079C184.099 22.6679 182.851 22.3479 181.507 22.3479C180.787 22.3479 180.259 22.4359 179.923 22.6119C179.587 22.7719 179.419 22.9879 179.419 23.2599C179.419 23.5639 179.603 23.7799 179.971 23.9079C180.339 24.0199 180.947 24.1399 181.795 24.2679C182.867 24.4279 183.755 24.6119 184.459 24.8199C185.163 25.0279 185.771 25.4119 186.283 25.9719C186.811 26.5159 187.075 27.2839 187.075 28.2759C187.075 29.0919 186.827 29.8279 186.331 30.4839C185.835 31.1239 185.099 31.6279 184.123 31.9959C183.163 32.3639 182.003 32.5479 180.643 32.5479ZM188.84 19.3239H193.4V32.3319H188.84V19.3239ZM191.12 17.8839C190.288 17.8839 189.616 17.6519 189.104 17.1879C188.592 16.7239 188.336 16.1479 188.336 15.4599C188.336 14.7719 188.592 14.1959 189.104 13.7319C189.616 13.2679 190.288 13.0359 191.12 13.0359C191.952 13.0359 192.624 13.2599 193.136 13.7079C193.648 14.1399 193.904 14.6999 193.904 15.3879C193.904 16.1079 193.648 16.7079 193.136 17.1879C192.624 17.6519 191.952 17.8839 191.12 17.8839ZM204.636 19.1079C206.252 19.1079 207.548 19.5879 208.524 20.5479C209.516 21.5079 210.012 22.9559 210.012 24.8919V32.3319H205.452V25.6359C205.452 23.8599 204.74 22.9719 203.316 22.9719C202.532 22.9719 201.9 23.2279 201.42 23.7399C200.956 24.2519 200.724 25.0199 200.724 26.0439V32.3319H196.164V19.3239H200.508V20.7399C201.02 20.2119 201.628 19.8119 202.332 19.5399C203.036 19.2519 203.804 19.1079 204.636 19.1079ZM219.39 32.5479C217.998 32.5479 216.742 32.2599 215.622 31.6839C214.502 31.1079 213.622 30.3079 212.982 29.2839C212.358 28.2599 212.046 27.0999 212.046 25.8039C212.046 24.5239 212.358 23.3719 212.982 22.3479C213.622 21.3239 214.494 20.5319 215.598 19.9719C216.718 19.3959 217.982 19.1079 219.39 19.1079C220.798 19.1079 222.062 19.3959 223.182 19.9719C224.302 20.5319 225.174 21.3239 225.798 22.3479C226.422 23.3559 226.734 24.5079 226.734 25.8039C226.734 27.0999 226.422 28.2599 225.798 29.2839C225.174 30.3079 224.302 31.1079 223.182 31.6839C222.062 32.2599 220.798 32.5479 219.39 32.5479ZM219.39 28.9239C220.19 28.9239 220.846 28.6519 221.358 28.1079C221.87 27.5479 222.126 26.7799 222.126 25.8039C222.126 24.8439 221.87 24.0919 221.358 23.5479C220.846 23.0039 220.19 22.7319 219.39 22.7319C218.59 22.7319 217.934 23.0039 217.422 23.5479C216.91 24.0919 216.654 24.8439 216.654 25.8039C216.654 26.7799 216.91 27.5479 217.422 28.1079C217.934 28.6519 218.59 28.9239 219.39 28.9239ZM233.374 32.5479C232.286 32.5479 231.214 32.4279 230.158 32.1879C229.102 31.9319 228.254 31.6039 227.614 31.2039L228.982 28.0839C229.574 28.4519 230.278 28.7479 231.094 28.9719C231.91 29.1799 232.718 29.2839 233.518 29.2839C234.254 29.2839 234.774 29.2119 235.078 29.0679C235.398 28.9079 235.558 28.6839 235.558 28.3959C235.558 28.1079 235.366 27.9079 234.982 27.7959C234.614 27.6679 234.022 27.5479 233.206 27.4359C232.166 27.3079 231.278 27.1399 230.542 26.9319C229.822 26.7239 229.198 26.3399 228.67 25.7799C228.142 25.2199 227.878 24.4359 227.878 23.4279C227.878 22.5959 228.126 21.8599 228.622 21.2199C229.118 20.5639 229.838 20.0519 230.782 19.6839C231.742 19.2999 232.886 19.1079 234.214 19.1079C235.158 19.1079 236.094 19.2039 237.022 19.3959C237.95 19.5879 238.726 19.8599 239.35 20.2119L237.982 23.3079C236.83 22.6679 235.582 22.3479 234.238 22.3479C233.518 22.3479 232.99 22.4359 232.654 22.6119C232.318 22.7719 232.15 22.9879 232.15 23.2599C232.15 23.5639 232.334 23.7799 232.702 23.9079C233.07 24.0199 233.678 24.1399 234.526 24.2679C235.598 24.4279 236.486 24.6119 237.19 24.8199C237.894 25.0279 238.502 25.4119 239.014 25.9719C239.542 26.5159 239.806 27.2839 239.806 28.2759C239.806 29.0919 239.558 29.8279 239.062 30.4839C238.566 31.1239 237.83 31.6279 236.854 31.9959C235.894 32.3639 234.734 32.5479 233.374 32.5479ZM245.915 20.8839C246.379 20.2919 246.979 19.8519 247.715 19.5639C248.467 19.2599 249.323 19.1079 250.283 19.1079V23.2119C249.867 23.1639 249.523 23.1399 249.251 23.1399C248.275 23.1399 247.507 23.4039 246.947 23.9319C246.403 24.4599 246.131 25.2679 246.131 26.3559V32.3319H241.571V19.3239H245.915V20.8839ZM257.415 19.1079C259.575 19.1079 261.223 19.6039 262.359 20.5959C263.495 21.5719 264.063 23.0759 264.063 25.1079V32.3319H259.815V30.6519C259.159 31.9159 257.879 32.5479 255.975 32.5479C254.967 32.5479 254.095 32.3719 253.359 32.0199C252.623 31.6679 252.063 31.1959 251.679 30.6039C251.311 29.9959 251.127 29.3079 251.127 28.5399C251.127 27.3079 251.599 26.3559 252.543 25.6839C253.487 24.9959 254.943 24.6519 256.911 24.6519H259.503C259.423 23.2759 258.503 22.5879 256.743 22.5879C256.119 22.5879 255.487 22.6919 254.847 22.8999C254.207 23.0919 253.663 23.3639 253.215 23.7159L251.679 20.6199C252.399 20.1399 253.271 19.7719 254.295 19.5159C255.335 19.2439 256.375 19.1079 257.415 19.1079ZM257.247 29.6679C257.775 29.6679 258.239 29.5399 258.639 29.2839C259.039 29.0279 259.327 28.6519 259.503 28.1559V27.0279H257.535C256.207 27.0279 255.543 27.4679 255.543 28.3479C255.543 28.7479 255.695 29.0679 255.999 29.3079C256.303 29.5479 256.719 29.6679 257.247 29.6679ZM275.214 19.1079C276.83 19.1079 278.126 19.5879 279.102 20.5479C280.094 21.5079 280.59 22.9559 280.59 24.8919V32.3319H276.03V25.6359C276.03 23.8599 275.318 22.9719 273.894 22.9719C273.11 22.9719 272.478 23.2279 271.998 23.7399C271.534 24.2519 271.302 25.0199 271.302 26.0439V32.3319H266.742V19.3239H271.086V20.7399C271.598 20.2119 272.206 19.8119 272.91 19.5399C273.614 19.2519 274.382 19.1079 275.214 19.1079ZM289.157 27.7719L287.813 29.1399V32.3319H283.253V14.5239H287.813V23.8599L292.469 19.3239H297.869L292.469 24.8919L298.325 32.3319H292.805L289.157 27.7719ZM301.66 32.5479C300.892 32.5479 300.244 32.2919 299.716 31.7799C299.188 31.2679 298.924 30.6199 298.924 29.8359C298.924 29.0359 299.18 28.3879 299.692 27.8919C300.22 27.3959 300.876 27.1479 301.66 27.1479C302.46 27.1479 303.116 27.3959 303.628 27.8919C304.14 28.3879 304.396 29.0359 304.396 29.8359C304.396 30.6199 304.132 31.2679 303.604 31.7799C303.092 32.2919 302.444 32.5479 301.66 32.5479Z" fill="black"/>
<path d="M312.985 32.5479C311.545 32.5479 310.257 32.2599 309.121 31.6839C307.985 31.1079 307.097 30.3079 306.457 29.2839C305.833 28.2599 305.521 27.0999 305.521 25.8039C305.521 24.5079 305.833 23.3559 306.457 22.3479C307.097 21.3239 307.985 20.5319 309.121 19.9719C310.257 19.3959 311.545 19.1079 312.985 19.1079C314.457 19.1079 315.729 19.4279 316.801 20.0679C317.873 20.6919 318.633 21.5639 319.081 22.6839L315.553 24.4839C314.961 23.3159 314.097 22.7319 312.961 22.7319C312.145 22.7319 311.465 23.0039 310.921 23.5479C310.393 24.0919 310.129 24.8439 310.129 25.8039C310.129 26.7799 310.393 27.5479 310.921 28.1079C311.465 28.6519 312.145 28.9239 312.961 28.9239C314.097 28.9239 314.961 28.3399 315.553 27.1719L319.081 28.9719C318.633 30.0919 317.873 30.9719 316.801 31.6119C315.729 32.2359 314.457 32.5479 312.985 32.5479ZM326.985 32.5479C325.593 32.5479 324.337 32.2599 323.217 31.6839C322.097 31.1079 321.217 30.3079 320.577 29.2839C319.953 28.2599 319.641 27.0999 319.641 25.8039C319.641 24.5239 319.953 23.3719 320.577 22.3479C321.217 21.3239 322.089 20.5319 323.193 19.9719C324.313 19.3959 325.577 19.1079 326.985 19.1079C328.393 19.1079 329.657 19.3959 330.777 19.9719C331.897 20.5319 332.769 21.3239 333.393 22.3479C334.017 23.3559 334.329 24.5079 334.329 25.8039C334.329 27.0999 334.017 28.2599 333.393 29.2839C332.769 30.3079 331.897 31.1079 330.777 31.6839C329.657 32.2599 328.393 32.5479 326.985 32.5479ZM326.985 28.9239C327.785 28.9239 328.441 28.6519 328.953 28.1079C329.465 27.5479 329.721 26.7799 329.721 25.8039C329.721 24.8439 329.465 24.0919 328.953 23.5479C328.441 23.0039 327.785 22.7319 326.985 22.7319C326.185 22.7319 325.529 23.0039 325.017 23.5479C324.505 24.0919 324.249 24.8439 324.249 25.8039C324.249 26.7799 324.505 27.5479 325.017 28.1079C325.529 28.6519 326.185 28.9239 326.985 28.9239ZM353.186 19.1079C354.786 19.1079 356.058 19.5879 357.002 20.5479C357.962 21.5079 358.442 22.9559 358.442 24.8919V32.3319H353.882V25.6359C353.882 24.7239 353.706 24.0519 353.354 23.6199C353.018 23.1879 352.538 22.9719 351.914 22.9719C351.226 22.9719 350.674 23.2119 350.258 23.6919C349.842 24.1719 349.634 24.8999 349.634 25.8759V32.3319H345.074V25.6359C345.074 23.8599 344.418 22.9719 343.106 22.9719C342.402 22.9719 341.842 23.2119 341.426 23.6919C341.01 24.1719 340.802 24.8999 340.802 25.8759V32.3319H336.242V19.3239H340.586V20.6919C341.066 20.1639 341.634 19.7719 342.29 19.5159C342.962 19.2439 343.69 19.1079 344.474 19.1079C345.386 19.1079 346.202 19.2759 346.922 19.6119C347.642 19.9479 348.226 20.4599 348.674 21.1479C349.186 20.4919 349.834 19.9879 350.618 19.6359C351.402 19.2839 352.258 19.1079 353.186 19.1079Z" fill="#8944E0"/>
<path d="M48.971 7.29767L46.2126 21.7345C46.2069 21.7634 46.2091 21.7932 46.2185 21.821C46.2278 21.8488 46.2443 21.8735 46.2661 21.8925C46.2879 21.9115 46.3142 21.924 46.3422 21.9289C46.3703 21.9338 46.3992 21.9308 46.4258 21.9203L49.3748 20.7717C49.3819 20.8141 49.389 20.8579 49.3956 20.8985C50.1038 25.5095 49.5849 30.2326 47.8946 34.5622C46.2041 38.8918 43.4059 42.6646 39.7997 45.4769C36.1932 48.2889 31.9146 50.0343 27.4216 50.5262C22.9289 51.0181 18.3913 50.2379 14.2947 48.269C18.5902 50.7308 23.4685 51.8962 28.3737 51.6324C33.279 51.3686 38.0139 49.6865 42.0389 46.7774C46.0641 43.8682 49.2175 39.8495 51.1399 35.1785C53.0623 30.5077 53.6766 25.3727 52.9124 20.3589L56.3088 20.6437C56.3377 20.6461 56.3663 20.6403 56.3924 20.627C56.4182 20.6138 56.44 20.5935 56.4556 20.5683C56.4712 20.5432 56.4798 20.5142 56.4807 20.4843C56.4814 20.4545 56.4746 20.425 56.4604 20.399L49.2659 7.24774C49.2498 7.21855 49.2254 7.19515 49.196 7.18068C49.1666 7.16622 49.1337 7.16138 49.1017 7.16681C49.0695 7.17224 49.0399 7.18771 49.0165 7.21108C48.993 7.23448 48.9772 7.2647 48.971 7.29767Z" fill="url(#paint0_linear)"/>
<path d="M43.7027 37.4159C41.4745 40.3443 38.6129 42.6923 35.3479 44.2713C32.0827 45.8504 28.5049 46.6166 24.9015 46.5085C21.298 46.4003 17.7692 45.4209 14.5982 43.6487C11.4273 41.8764 8.70251 39.3608 6.64255 36.3036C4.58255 33.2466 3.24471 29.7329 2.73635 26.0448C2.22802 22.3568 2.56332 18.597 3.71539 15.0671C4.86744 11.5371 6.80416 8.33541 9.37015 5.71879C11.9361 3.10217 15.0599 1.14352 18.4909 0C14.0698 1.12285 10.0431 3.50718 6.87014 6.88101C3.6972 10.2548 1.50581 14.4823 0.545949 19.0811C-0.413917 23.6799 -0.103606 28.465 1.44149 32.8902C2.98659 37.3158 5.70424 41.2031 9.28444 44.1093C12.8646 47.0155 17.1632 48.8234 21.6898 49.3266C26.2164 49.8297 30.7887 49.0082 34.8852 46.9553C38.9816 44.9025 42.4373 41.7014 44.8579 37.7169C47.2784 33.7324 48.5665 29.125 48.5753 24.4205C48.2501 29.1595 46.5522 33.6876 43.7027 37.4159Z" fill="url(#paint1_linear)"/>
<path d="M38.6328 12.2499C37.212 14.1198 35.5964 15.8225 33.8149 17.3271C33.7969 17.3424 33.7822 17.3617 33.7723 17.3835C33.7623 17.4054 33.7571 17.4293 33.7571 17.4534V40.8135C33.7571 41.0014 33.6993 41.1845 33.592 41.3362C33.4848 41.4882 33.3337 41.6008 33.1605 41.658L33.1421 41.6642C33.0137 41.7067 32.8775 41.7173 32.7444 41.695C32.6113 41.673 32.4851 41.6184 32.3764 41.5364C32.2674 41.4542 32.1789 41.3467 32.1178 41.2227C32.0567 41.0983 32.0249 40.961 32.0249 40.8218V19.043C32.0249 19.013 32.0171 18.9836 32.0022 18.958C31.9873 18.9324 31.9657 18.9115 31.9399 18.8976C31.9143 18.8838 31.8854 18.8775 31.8565 18.8794C31.8276 18.8813 31.7997 18.8914 31.776 18.9086C29.4172 20.5869 26.8456 21.9211 24.1341 22.8733C24.1029 22.8842 24.0756 22.905 24.0562 22.9327C24.037 22.9605 24.0266 22.9938 24.0266 23.028V41.8942C24.0266 42.0251 23.9984 42.1546 23.9442 42.2728C23.89 42.3913 23.8111 42.4958 23.7133 42.579C23.6153 42.6622 23.5007 42.7217 23.3778 42.7537C23.2549 42.7855 23.1267 42.789 23.0023 42.7635L22.9687 42.7567C22.7748 42.717 22.6002 42.6088 22.4749 42.4507C22.3496 42.2926 22.2814 42.0947 22.2819 41.8903C22.2864 39.859 22.2909 37.1241 22.2942 37.1261V23.6699C22.2942 23.6448 22.2886 23.62 22.2778 23.5975C22.2671 23.575 22.2515 23.5554 22.2322 23.5401C22.2129 23.5248 22.1905 23.5144 22.1667 23.5095C22.1428 23.5046 22.1182 23.5055 22.0948 23.512L22.0164 23.5333C19.8043 24.134 17.8471 25.4748 16.4503 27.3463C15.0535 29.218 14.2958 31.5148 14.2956 33.8782V36.9768C14.2961 37.1498 14.2474 37.3194 14.1556 37.464C14.0638 37.6089 13.9329 37.7227 13.7792 37.7915C13.6254 37.86 13.4556 37.8808 13.2906 37.8507C13.1256 37.8209 12.9728 37.7416 12.851 37.6226C9.45346 34.2482 7.29322 29.761 6.73823 24.9254C6.18323 20.0898 7.26783 15.2048 9.80727 11.1029C12.3467 7.00088 16.1839 3.93562 20.665 2.42925C25.1461 0.922871 29.9941 1.06859 34.3831 2.84159C30.9274 1.14404 27.0953 0.432897 23.2839 0.781936C19.4727 1.13097 15.8212 2.52747 12.7083 4.82655C9.59547 7.12565 7.13464 10.2436 5.58109 13.8569C4.02756 17.4701 3.43792 21.4471 3.87336 25.3754C4.3088 29.3034 5.75345 33.0397 8.05745 36.1963C10.3615 39.3531 13.4408 41.8152 16.9762 43.3274C20.5115 44.8393 24.3741 45.3464 28.1629 44.796C31.952 44.2454 35.5291 42.657 38.5238 40.196C39.5685 39.451 40.5431 38.606 41.434 37.6718L41.5276 37.5683C41.6751 37.4048 41.7571 37.1894 41.7566 36.9658V8.15231C41.7566 8.15231 41.7566 8.04952 41.7566 7.9132C41.7568 7.87676 41.7452 7.84128 41.7239 7.81232C41.7024 7.7834 41.6723 7.76264 41.6382 7.75337C41.6041 7.74409 41.5679 7.74681 41.5354 7.76108C41.503 7.77534 41.4762 7.80036 41.4589 7.8322C40.635 9.38192 39.6898 10.8594 38.6328 12.2499Z" fill="url(#paint2_linear)"/>
<defs>
<linearGradient id="paint0_linear" x1="14.2947" y1="29.4169" x2="56.4807" y2="29.4169" gradientUnits="userSpaceOnUse">
<stop stop-color="#440AA3" stop-opacity="0.76"/>
<stop offset="1" stop-color="#8922DA" stop-opacity="0.65"/>
</linearGradient>
<linearGradient id="paint1_linear" x1="-2.96687e-08" y1="24.7352" x2="48.5753" y2="24.7352" gradientUnits="userSpaceOnUse">
<stop stop-color="#440AA3" stop-opacity="0.76"/>
<stop offset="1" stop-color="#8922DA" stop-opacity="0.65"/>
</linearGradient>
<linearGradient id="paint2_linear" x1="3.73405" y1="22.8536" x2="41.7566" y2="22.8536" gradientUnits="userSpaceOnUse">
<stop stop-color="#440AA3" stop-opacity="0.76"/>
<stop offset="1" stop-color="#8922DA" stop-opacity="0.65"/>
</linearGradient>
</defs>
</svg>
