<svg width="417" height="83" viewBox="0 0 417 83" fill="none" xmlns="http://www.w3.org/2000/svg">
<path d="M130.917 56.4855C129.525 56.4855 128.269 56.1975 127.149 55.6215C126.029 55.0455 125.149 54.2455 124.509 53.2215C123.885 52.1975 123.573 51.0375 123.573 49.7415C123.573 48.4615 123.885 47.3095 124.509 46.2855C125.149 45.2615 126.021 44.4695 127.125 43.9095C128.245 43.3335 129.509 43.0455 130.917 43.0455C132.325 43.0455 133.589 43.3335 134.709 43.9095C135.829 44.4695 136.701 45.2615 137.325 46.2855C137.949 47.2935 138.261 48.4455 138.261 49.7415C138.261 51.0375 137.949 52.1975 137.325 53.2215C136.701 54.2455 135.829 55.0455 134.709 55.6215C133.589 56.1975 132.325 56.4855 130.917 56.4855ZM130.917 52.8615C131.717 52.8615 132.373 52.5895 132.885 52.0455C133.397 51.4855 133.653 50.7175 133.653 49.7415C133.653 48.7815 133.397 48.0295 132.885 47.4855C132.373 46.9415 131.717 46.6695 130.917 46.6695C130.117 46.6695 129.461 46.9415 128.949 47.4855C128.437 48.0295 128.181 48.7815 128.181 49.7415C128.181 50.7175 128.437 51.4855 128.949 52.0455C129.461 52.5895 130.117 52.8615 130.917 52.8615ZM148.646 43.0455C150.262 43.0455 151.558 43.5255 152.534 44.4855C153.526 45.4455 154.022 46.8935 154.022 48.8295V56.2695H149.462V49.5735C149.462 47.7975 148.75 46.9095 147.326 46.9095C146.542 46.9095 145.91 47.1655 145.43 47.6775C144.966 48.1895 144.734 48.9575 144.734 49.9815V56.2695H140.174V43.2615H144.518V44.6775C145.03 44.1495 145.638 43.7495 146.342 43.4775C147.046 43.1895 147.814 43.0455 148.646 43.0455ZM156.685 38.4615H161.245V56.2695H156.685V38.4615ZM164.008 43.2615H168.568V56.2695H164.008V43.2615ZM166.288 41.8215C165.456 41.8215 164.784 41.5895 164.272 41.1255C163.76 40.6615 163.504 40.0855 163.504 39.3975C163.504 38.7095 163.76 38.1335 164.272 37.6695C164.784 37.2055 165.456 36.9735 166.288 36.9735C167.12 36.9735 167.792 37.1975 168.304 37.6455C168.816 38.0775 169.072 38.6375 169.072 39.3255C169.072 40.0455 168.816 40.6455 168.304 41.1255C167.792 41.5895 167.12 41.8215 166.288 41.8215ZM179.803 43.0455C181.419 43.0455 182.715 43.5255 183.691 44.4855C184.683 45.4455 185.179 46.8935 185.179 48.8295V56.2695H180.619V49.5735C180.619 47.7975 179.907 46.9095 178.483 46.9095C177.699 46.9095 177.067 47.1655 176.587 47.6775C176.123 48.1895 175.891 48.9575 175.891 49.9815V56.2695H171.331V43.2615H175.675V44.6775C176.187 44.1495 176.795 43.7495 177.499 43.4775C178.203 43.1895 178.971 43.0455 179.803 43.0455ZM201.326 49.7895C201.326 49.8215 201.302 50.1975 201.254 50.9175H191.798C191.99 51.5895 192.358 52.1095 192.902 52.4775C193.462 52.8295 194.158 53.0055 194.99 53.0055C195.614 53.0055 196.15 52.9175 196.598 52.7415C197.062 52.5655 197.526 52.2775 197.99 51.8775L200.39 54.3735C199.126 55.7815 197.278 56.4855 194.846 56.4855C193.326 56.4855 191.99 56.1975 190.838 55.6215C189.686 55.0455 188.79 54.2455 188.15 53.2215C187.526 52.1975 187.214 51.0375 187.214 49.7415C187.214 48.4615 187.518 47.3175 188.126 46.3095C188.75 45.2855 189.606 44.4855 190.694 43.9095C191.782 43.3335 193.006 43.0455 194.366 43.0455C195.662 43.0455 196.838 43.3175 197.894 43.8615C198.95 44.3895 199.782 45.1655 200.39 46.1895C201.014 47.1975 201.326 48.3975 201.326 49.7895ZM194.39 46.2855C193.686 46.2855 193.094 46.4855 192.614 46.8855C192.15 47.2855 191.854 47.8295 191.726 48.5175H197.054C196.926 47.8295 196.622 47.2855 196.142 46.8855C195.678 46.4855 195.094 46.2855 194.39 46.2855ZM209.876 56.4855C208.436 56.4855 207.148 56.1975 206.012 55.6215C204.876 55.0455 203.988 54.2455 203.348 53.2215C202.724 52.1975 202.412 51.0375 202.412 49.7415C202.412 48.4455 202.724 47.2935 203.348 46.2855C203.988 45.2615 204.876 44.4695 206.012 43.9095C207.148 43.3335 208.436 43.0455 209.876 43.0455C211.348 43.0455 212.62 43.3655 213.692 44.0055C214.764 44.6295 215.524 45.5015 215.972 46.6215L212.444 48.4215C211.852 47.2535 210.988 46.6695 209.852 46.6695C209.036 46.6695 208.356 46.9415 207.812 47.4855C207.284 48.0295 207.02 48.7815 207.02 49.7415C207.02 50.7175 207.284 51.4855 207.812 52.0455C208.356 52.5895 209.036 52.8615 209.852 52.8615C210.988 52.8615 211.852 52.2775 212.444 51.1095L215.972 52.9095C215.524 54.0295 214.764 54.9095 213.692 55.5495C212.62 56.1735 211.348 56.4855 209.876 56.4855ZM223.033 43.0455C225.193 43.0455 226.841 43.5415 227.977 44.5335C229.113 45.5095 229.681 47.0135 229.681 49.0455V56.2695H225.433V54.5895C224.777 55.8535 223.497 56.4855 221.593 56.4855C220.585 56.4855 219.713 56.3095 218.977 55.9575C218.241 55.6055 217.681 55.1335 217.297 54.5415C216.929 53.9335 216.745 53.2455 216.745 52.4775C216.745 51.2455 217.217 50.2935 218.161 49.6215C219.105 48.9335 220.561 48.5895 222.529 48.5895H225.121C225.041 47.2135 224.121 46.5255 222.361 46.5255C221.737 46.5255 221.105 46.6295 220.465 46.8375C219.825 47.0295 219.281 47.3015 218.833 47.6535L217.297 44.5575C218.017 44.0775 218.889 43.7095 219.913 43.4535C220.953 43.1815 221.993 43.0455 223.033 43.0455ZM222.865 53.6055C223.393 53.6055 223.857 53.4775 224.257 53.2215C224.657 52.9655 224.945 52.5895 225.121 52.0935V50.9655H223.153C221.825 50.9655 221.161 51.4055 221.161 52.2855C221.161 52.6855 221.313 53.0055 221.617 53.2455C221.921 53.4855 222.337 53.6055 222.865 53.6055ZM237.088 56.4855C236 56.4855 234.928 56.3655 233.872 56.1255C232.816 55.8695 231.968 55.5415 231.328 55.1415L232.696 52.0215C233.288 52.3895 233.992 52.6855 234.808 52.9095C235.624 53.1175 236.432 53.2215 237.232 53.2215C237.968 53.2215 238.488 53.1495 238.792 53.0055C239.112 52.8455 239.272 52.6215 239.272 52.3335C239.272 52.0455 239.08 51.8455 238.696 51.7335C238.328 51.6055 237.736 51.4855 236.92 51.3735C235.88 51.2455 234.992 51.0775 234.256 50.8695C233.536 50.6615 232.912 50.2775 232.384 49.7175C231.856 49.1575 231.592 48.3735 231.592 47.3655C231.592 46.5335 231.84 45.7975 232.336 45.1575C232.832 44.5015 233.552 43.9895 234.496 43.6215C235.456 43.2375 236.6 43.0455 237.928 43.0455C238.872 43.0455 239.808 43.1415 240.736 43.3335C241.664 43.5255 242.44 43.7975 243.064 44.1495L241.696 47.2455C240.544 46.6055 239.296 46.2855 237.952 46.2855C237.232 46.2855 236.704 46.3735 236.368 46.5495C236.032 46.7095 235.864 46.9255 235.864 47.1975C235.864 47.5015 236.048 47.7175 236.416 47.8455C236.784 47.9575 237.392 48.0775 238.24 48.2055C239.312 48.3655 240.2 48.5495 240.904 48.7575C241.608 48.9655 242.216 49.3495 242.728 49.9095C243.256 50.4535 243.52 51.2215 243.52 52.2135C243.52 53.0295 243.272 53.7655 242.776 54.4215C242.28 55.0615 241.544 55.5655 240.568 55.9335C239.608 56.3015 238.448 56.4855 237.088 56.4855ZM245.285 43.2615H249.845V56.2695H245.285V43.2615ZM247.565 41.8215C246.733 41.8215 246.061 41.5895 245.549 41.1255C245.037 40.6615 244.781 40.0855 244.781 39.3975C244.781 38.7095 245.037 38.1335 245.549 37.6695C246.061 37.2055 246.733 36.9735 247.565 36.9735C248.397 36.9735 249.069 37.1975 249.581 37.6455C250.093 38.0775 250.349 38.6375 250.349 39.3255C250.349 40.0455 250.093 40.6455 249.581 41.1255C249.069 41.5895 248.397 41.8215 247.565 41.8215ZM261.08 43.0455C262.696 43.0455 263.992 43.5255 264.968 44.4855C265.96 45.4455 266.456 46.8935 266.456 48.8295V56.2695H261.896V49.5735C261.896 47.7975 261.184 46.9095 259.76 46.9095C258.976 46.9095 258.344 47.1655 257.864 47.6775C257.4 48.1895 257.168 48.9575 257.168 49.9815V56.2695H252.608V43.2615H256.952V44.6775C257.464 44.1495 258.072 43.7495 258.776 43.4775C259.48 43.1895 260.248 43.0455 261.08 43.0455ZM275.834 56.4855C274.442 56.4855 273.186 56.1975 272.066 55.6215C270.946 55.0455 270.066 54.2455 269.426 53.2215C268.802 52.1975 268.49 51.0375 268.49 49.7415C268.49 48.4615 268.802 47.3095 269.426 46.2855C270.066 45.2615 270.938 44.4695 272.042 43.9095C273.162 43.3335 274.426 43.0455 275.834 43.0455C277.242 43.0455 278.506 43.3335 279.626 43.9095C280.746 44.4695 281.618 45.2615 282.242 46.2855C282.866 47.2935 283.178 48.4455 283.178 49.7415C283.178 51.0375 282.866 52.1975 282.242 53.2215C281.618 54.2455 280.746 55.0455 279.626 55.6215C278.506 56.1975 277.242 56.4855 275.834 56.4855ZM275.834 52.8615C276.634 52.8615 277.29 52.5895 277.802 52.0455C278.314 51.4855 278.57 50.7175 278.57 49.7415C278.57 48.7815 278.314 48.0295 277.802 47.4855C277.29 46.9415 276.634 46.6695 275.834 46.6695C275.034 46.6695 274.378 46.9415 273.866 47.4855C273.354 48.0295 273.098 48.7815 273.098 49.7415C273.098 50.7175 273.354 51.4855 273.866 52.0455C274.378 52.5895 275.034 52.8615 275.834 52.8615ZM289.819 56.4855C288.731 56.4855 287.659 56.3655 286.603 56.1255C285.547 55.8695 284.699 55.5415 284.059 55.1415L285.427 52.0215C286.019 52.3895 286.723 52.6855 287.539 52.9095C288.355 53.1175 289.163 53.2215 289.963 53.2215C290.699 53.2215 291.219 53.1495 291.523 53.0055C291.843 52.8455 292.003 52.6215 292.003 52.3335C292.003 52.0455 291.811 51.8455 291.427 51.7335C291.059 51.6055 290.467 51.4855 289.651 51.3735C288.611 51.2455 287.723 51.0775 286.987 50.8695C286.267 50.6615 285.643 50.2775 285.115 49.7175C284.587 49.1575 284.323 48.3735 284.323 47.3655C284.323 46.5335 284.571 45.7975 285.067 45.1575C285.563 44.5015 286.283 43.9895 287.227 43.6215C288.187 43.2375 289.331 43.0455 290.659 43.0455C291.603 43.0455 292.539 43.1415 293.467 43.3335C294.395 43.5255 295.171 43.7975 295.795 44.1495L294.427 47.2455C293.275 46.6055 292.027 46.2855 290.683 46.2855C289.963 46.2855 289.435 46.3735 289.099 46.5495C288.763 46.7095 288.595 46.9255 288.595 47.1975C288.595 47.5015 288.779 47.7175 289.147 47.8455C289.515 47.9575 290.123 48.0775 290.971 48.2055C292.043 48.3655 292.931 48.5495 293.635 48.7575C294.339 48.9655 294.947 49.3495 295.459 49.9095C295.987 50.4535 296.251 51.2215 296.251 52.2135C296.251 53.0295 296.003 53.7655 295.507 54.4215C295.011 55.0615 294.275 55.5655 293.299 55.9335C292.339 56.3015 291.179 56.4855 289.819 56.4855ZM302.36 44.8215C302.824 44.2295 303.424 43.7895 304.16 43.5015C304.912 43.1975 305.768 43.0455 306.728 43.0455V47.1495C306.312 47.1015 305.968 47.0775 305.696 47.0775C304.72 47.0775 303.952 47.3415 303.392 47.8695C302.848 48.3975 302.576 49.2055 302.576 50.2935V56.2695H298.016V43.2615H302.36V44.8215ZM313.86 43.0455C316.02 43.0455 317.668 43.5415 318.804 44.5335C319.94 45.5095 320.508 47.0135 320.508 49.0455V56.2695H316.26V54.5895C315.604 55.8535 314.324 56.4855 312.42 56.4855C311.412 56.4855 310.54 56.3095 309.804 55.9575C309.068 55.6055 308.508 55.1335 308.124 54.5415C307.756 53.9335 307.572 53.2455 307.572 52.4775C307.572 51.2455 308.044 50.2935 308.988 49.6215C309.932 48.9335 311.388 48.5895 313.356 48.5895H315.948C315.868 47.2135 314.948 46.5255 313.188 46.5255C312.564 46.5255 311.932 46.6295 311.292 46.8375C310.652 47.0295 310.108 47.3015 309.66 47.6535L308.124 44.5575C308.844 44.0775 309.716 43.7095 310.74 43.4535C311.78 43.1815 312.82 43.0455 313.86 43.0455ZM313.692 53.6055C314.22 53.6055 314.684 53.4775 315.084 53.2215C315.484 52.9655 315.772 52.5895 315.948 52.0935V50.9655H313.98C312.652 50.9655 311.988 51.4055 311.988 52.2855C311.988 52.6855 312.14 53.0055 312.444 53.2455C312.748 53.4855 313.164 53.6055 313.692 53.6055ZM331.658 43.0455C333.274 43.0455 334.57 43.5255 335.546 44.4855C336.538 45.4455 337.034 46.8935 337.034 48.8295V56.2695H332.474V49.5735C332.474 47.7975 331.762 46.9095 330.338 46.9095C329.554 46.9095 328.922 47.1655 328.442 47.6775C327.978 48.1895 327.746 48.9575 327.746 49.9815V56.2695H323.186V43.2615H327.53V44.6775C328.042 44.1495 328.65 43.7495 329.354 43.4775C330.058 43.1895 330.826 43.0455 331.658 43.0455ZM345.601 51.7095L344.257 53.0775V56.2695H339.697V38.4615H344.257V47.7975L348.913 43.2615H354.313L348.913 48.8295L354.769 56.2695H349.249L345.601 51.7095ZM358.105 56.4855C357.337 56.4855 356.689 56.2295 356.161 55.7175C355.633 55.2055 355.369 54.5575 355.369 53.7735C355.369 52.9735 355.625 52.3255 356.137 51.8295C356.665 51.3335 357.321 51.0855 358.105 51.0855C358.905 51.0855 359.561 51.3335 360.073 51.8295C360.585 52.3255 360.841 52.9735 360.841 53.7735C360.841 54.5575 360.577 55.2055 360.049 55.7175C359.537 56.2295 358.889 56.4855 358.105 56.4855ZM369.359 56.4855C367.919 56.4855 366.631 56.1975 365.495 55.6215C364.359 55.0455 363.471 54.2455 362.831 53.2215C362.207 52.1975 361.895 51.0375 361.895 49.7415C361.895 48.4455 362.207 47.2935 362.831 46.2855C363.471 45.2615 364.359 44.4695 365.495 43.9095C366.631 43.3335 367.919 43.0455 369.359 43.0455C370.831 43.0455 372.103 43.3655 373.175 44.0055C374.247 44.6295 375.007 45.5015 375.455 46.6215L371.927 48.4215C371.335 47.2535 370.471 46.6695 369.335 46.6695C368.519 46.6695 367.839 46.9415 367.295 47.4855C366.767 48.0295 366.503 48.7815 366.503 49.7415C366.503 50.7175 366.767 51.4855 367.295 52.0455C367.839 52.5895 368.519 52.8615 369.335 52.8615C370.471 52.8615 371.335 52.2775 371.927 51.1095L375.455 52.9095C375.007 54.0295 374.247 54.9095 373.175 55.5495C372.103 56.1735 370.831 56.4855 369.359 56.4855ZM383.359 56.4855C381.967 56.4855 380.711 56.1975 379.591 55.6215C378.471 55.0455 377.591 54.2455 376.951 53.2215C376.327 52.1975 376.015 51.0375 376.015 49.7415C376.015 48.4615 376.327 47.3095 376.951 46.2855C377.591 45.2615 378.463 44.4695 379.567 43.9095C380.687 43.3335 381.951 43.0455 383.359 43.0455C384.767 43.0455 386.031 43.3335 387.151 43.9095C388.271 44.4695 389.143 45.2615 389.767 46.2855C390.391 47.2935 390.703 48.4455 390.703 49.7415C390.703 51.0375 390.391 52.1975 389.767 53.2215C389.143 54.2455 388.271 55.0455 387.151 55.6215C386.031 56.1975 384.767 56.4855 383.359 56.4855ZM383.359 52.8615C384.159 52.8615 384.815 52.5895 385.327 52.0455C385.839 51.4855 386.095 50.7175 386.095 49.7415C386.095 48.7815 385.839 48.0295 385.327 47.4855C384.815 46.9415 384.159 46.6695 383.359 46.6695C382.559 46.6695 381.903 46.9415 381.391 47.4855C380.879 48.0295 380.623 48.7815 380.623 49.7415C380.623 50.7175 380.879 51.4855 381.391 52.0455C381.903 52.5895 382.559 52.8615 383.359 52.8615ZM409.56 43.0455C411.16 43.0455 412.432 43.5255 413.376 44.4855C414.336 45.4455 414.816 46.8935 414.816 48.8295V56.2695H410.256V49.5735C410.256 48.6615 410.08 47.9895 409.728 47.5575C409.392 47.1255 408.912 46.9095 408.288 46.9095C407.6 46.9095 407.048 47.1495 406.632 47.6295C406.216 48.1095 406.008 48.8375 406.008 49.8135V56.2695H401.448V49.5735C401.448 47.7975 400.792 46.9095 399.48 46.9095C398.776 46.9095 398.216 47.1495 397.8 47.6295C397.384 48.1095 397.176 48.8375 397.176 49.8135V56.2695H392.616V43.2615H396.96V44.6295C397.44 44.1015 398.008 43.7095 398.664 43.4535C399.336 43.1815 400.064 43.0455 400.848 43.0455C401.76 43.0455 402.576 43.2135 403.296 43.5495C404.016 43.8855 404.6 44.3975 405.048 45.0855C405.56 44.4295 406.208 43.9255 406.992 43.5735C407.776 43.2215 408.632 43.0455 409.56 43.0455Z" fill="white"/>
<path d="M81.4368 12.2743L76.8497 35.0447C76.8403 35.0903 76.8438 35.1373 76.8596 35.1812C76.8749 35.225 76.9025 35.2639 76.9387 35.2938C76.975 35.3238 77.0187 35.3436 77.0652 35.3513C77.112 35.3591 77.1601 35.3544 77.2042 35.3377L82.1083 33.5262C82.1201 33.5929 82.1319 33.662 82.143 33.7261C83.3206 40.9988 82.4577 48.4483 79.6468 55.2772C76.8355 62.106 72.1823 68.0566 66.1852 72.4922C60.1878 76.9274 53.0726 79.6804 45.601 80.4563C38.1298 81.2321 30.5839 80.0016 23.7715 76.8961C30.9148 80.779 39.0272 82.6171 47.1843 82.201C55.3416 81.7849 63.2157 79.1319 69.909 74.5434C76.6028 69.955 81.8468 63.6164 85.0436 56.2491C88.2405 48.8822 89.2621 40.7831 87.9911 32.875L93.6393 33.3243C93.6873 33.328 93.735 33.3189 93.7783 33.2979C93.8212 33.277 93.8574 33.245 93.8834 33.2054C93.9094 33.1657 93.9236 33.1199 93.9252 33.0729C93.9264 33.0259 93.9149 32.9793 93.8913 32.9383L81.9271 12.1955C81.9004 12.1495 81.8598 12.1126 81.811 12.0898C81.7621 12.0669 81.7074 12.0593 81.6542 12.0679C81.6007 12.0764 81.5514 12.1008 81.5124 12.1377C81.4734 12.1746 81.4471 12.2223 81.4368 12.2743Z" fill="white"/>
<path d="M72.6758 59.779C68.9705 64.3979 64.2117 68.1012 58.7822 70.5917C53.3523 73.0821 47.4025 74.2907 41.4102 74.1201C35.4176 73.9495 29.5494 72.4047 24.2763 69.6097C19.0032 66.8143 14.4719 62.8466 11.0463 58.0246C7.6206 53.2031 5.39582 47.6613 4.55044 41.8442C3.7051 36.0274 4.2627 30.0973 6.17854 24.5298C8.09435 18.9623 11.315 13.9125 15.5822 9.78546C19.8493 5.65846 25.0441 2.56921 30.7496 0.765625C23.3975 2.53661 16.7012 6.29725 11.4248 11.6185C6.1483 16.9398 2.5041 23.6075 0.90789 30.8609C-0.688327 38.1143 -0.172293 45.6614 2.39713 52.6411C4.96657 59.6211 9.48592 65.7524 15.4396 70.3361C21.3934 74.9199 28.5417 77.7713 36.0692 78.5649C43.5968 79.3585 51.2003 78.0627 58.0126 74.8249C64.8249 71.5872 70.5715 66.5383 74.5969 60.2538C78.622 53.9693 80.7641 46.7024 80.7787 39.2823C80.2379 46.7569 77.4145 53.8987 72.6758 59.779Z" fill="white"/>
<path d="M64.2448 20.0911C61.8821 23.0404 59.1953 25.7258 56.2328 28.099C56.2029 28.1231 56.1785 28.1535 56.1619 28.1879C56.1454 28.2224 56.1367 28.26 56.1367 28.2981V65.142C56.1367 65.4384 56.0406 65.7271 55.8622 65.9665C55.6838 66.2062 55.4325 66.3837 55.1446 66.4741L55.1139 66.4837C54.9005 66.5509 54.674 66.5675 54.4527 66.5323C54.2313 66.4976 54.0214 66.4115 53.8406 66.2822C53.6595 66.1525 53.5122 65.9831 53.4105 65.7874C53.3089 65.5913 53.2562 65.3747 53.2562 65.1551V30.8052C53.2562 30.758 53.2432 30.7116 53.2183 30.6712C53.1935 30.6308 53.1577 30.5978 53.1148 30.576C53.0722 30.5541 53.0242 30.5442 52.9761 30.5472C52.9281 30.5503 52.8816 30.5662 52.8422 30.5933C48.9196 33.2404 44.6432 35.3446 40.1341 36.8465C40.0821 36.8636 40.0368 36.8964 40.0045 36.9402C39.9726 36.9839 39.9553 37.0365 39.9553 37.0904V66.8465C39.9553 67.053 39.9084 67.2572 39.8182 67.4437C39.728 67.6305 39.5969 67.7953 39.4342 67.9266C39.2713 68.0578 39.0808 68.1516 38.8764 68.2022C38.672 68.2523 38.4587 68.2578 38.2519 68.2176L38.196 68.2068C37.8735 68.1443 37.5833 67.9737 37.3749 67.7243C37.1665 67.4749 37.0531 67.1627 37.0539 66.8404C37.0613 63.6366 37.0688 59.3231 37.0743 59.3261V38.1029C37.0743 38.0633 37.065 38.0242 37.0472 37.9887C37.0293 37.9532 37.0033 37.9222 36.9712 37.8981C36.9392 37.8741 36.9019 37.8576 36.8622 37.8499C36.8226 37.8422 36.7817 37.8436 36.7427 37.8539L36.6124 37.8875C32.9338 38.8349 29.6789 40.9496 27.3561 43.9013C25.0333 46.8534 23.7734 50.476 23.7731 54.2036V59.0907C23.7738 59.3636 23.6928 59.6311 23.5401 59.8592C23.3875 60.0877 23.1698 60.2672 22.9142 60.3757C22.6585 60.4838 22.376 60.5166 22.1017 60.4691C21.8274 60.422 21.5732 60.2969 21.3706 60.1093C15.7207 54.7872 12.1283 47.7099 11.2054 40.083C10.2825 32.4562 12.0861 24.7517 16.3091 18.282C20.5321 11.8123 26.9131 6.97768 34.3651 4.60181C41.817 2.22593 49.879 2.45576 57.1776 5.25215C51.4311 2.57475 45.0583 1.45313 38.7202 2.00364C32.3822 2.55415 26.31 4.75672 21.1334 8.38286C15.9569 12.009 11.8646 16.9267 9.28111 22.6256C6.69766 28.3245 5.71711 34.5971 6.44123 40.7929C7.16535 46.9881 9.56775 52.8811 13.3992 57.8597C17.2307 62.8387 22.3516 66.7219 28.2307 69.1069C34.1098 71.4916 40.5331 72.2914 46.8338 71.4233C53.1349 70.5548 59.0835 68.0497 64.0636 64.1681C65.8008 62.9931 67.4215 61.6603 68.9031 60.1869L69.0587 60.0236C69.3041 59.7658 69.4403 59.4261 69.4396 59.0733V13.6283C69.4396 13.6283 69.4396 13.4662 69.4396 13.2512C69.4399 13.1937 69.4207 13.1377 69.3852 13.0921C69.3494 13.0465 69.2993 13.0137 69.2426 12.9991C69.1859 12.9845 69.1257 12.9887 69.0717 13.0112C69.0178 13.0338 68.9733 13.0732 68.9445 13.1234C67.5743 15.5677 66.0025 17.898 64.2448 20.0911Z" fill="white"/>
</svg>
