<svg width="30" height="30" viewBox="0 0 30 30" fill="none" xmlns="http://www.w3.org/2000/svg">
<path d="M0.9375 4.6875V25.3125H29.0625V4.6875H0.9375ZM18.4088 15.9553C19.0094 16.4487 19.7624 16.7185 20.5397 16.7189C22.4227 16.7189 23.948 15.1795 23.948 13.2811C23.948 11.3827 22.4227 9.84375 20.5397 9.84375C19.7625 9.84417 19.0095 10.1138 18.4088 10.6069V8.12484H25.6528V18.4373H18.4088V15.9553ZM11.5908 18.4373H4.34625V8.12484H11.5903V18.4373H11.5908ZM11.5908 6.83578H3.06797V19.7264H11.5908V21.0155H1.78969V5.54672H11.5903V6.83578H11.5908ZM17.5566 21.0169H12.443V5.97656H17.5566V21.0169ZM28.2103 21.0155H18.4088V19.7264H26.9316V6.83578H18.4088V5.54672H28.2098V21.0155H28.2103Z" fill="#7145B9"/>
<path d="M9.60358 16.5038C9.8417 16.5038 10.0808 16.4803 10.3123 16.4334L10.1201 15.5934C9.59003 15.701 9.03952 15.6394 8.54632 15.4173C8.05312 15.1952 7.64213 14.8238 7.37139 14.3555H10.2148V13.4963H7.06061C7.03717 13.3556 7.02217 13.2131 7.02217 13.0664C7.02217 12.9197 7.03717 12.7772 7.06061 12.6366H10.2148V11.7774H7.37139C7.64208 11.309 8.05306 10.9376 8.54627 10.7154C9.03949 10.4933 9.59003 10.4317 10.1201 10.5394L10.3123 9.69938C10.079 9.65224 9.84159 9.62869 9.60358 9.62907C8.91226 9.62715 8.23589 9.83021 7.65995 10.2126C7.08401 10.595 6.63435 11.1395 6.36779 11.7774H5.19873V12.6366H6.14092C6.12357 12.7777 6.11139 12.9202 6.11139 13.0664C6.11139 13.2127 6.12357 13.3552 6.14092 13.4963H5.19873V14.3555H6.36779C6.63435 14.9933 7.08401 15.5379 7.65995 15.9202C8.23589 16.3026 8.91226 16.5057 9.60358 16.5038Z" fill="#7145B9"/>
</svg>
