<svg width="45" height="55" viewBox="0 0 45 55" fill="none" xmlns="http://www.w3.org/2000/svg">
<path d="M44.8963 25.0247C44.8963 38.7644 35.3406 51.6129 22.5 54.7322C9.65946 51.6129 0.103699 38.7644 0.103699 25.0247V10.171L22.5 0.268555L44.8963 10.171V25.0247ZM22.5 49.7809C31.8318 47.3053 39.9194 36.264 39.9194 25.5694V13.3893L22.5 5.6654L5.08066 13.3893V25.5694C5.08066 36.264 13.1682 47.3053 22.5 49.7809ZM22.5 12.6466C24.48 12.6466 26.3788 13.4291 27.7789 14.8219C29.1789 16.2147 29.9655 18.1038 29.9655 20.0735C29.9655 23.3166 27.9 26.0645 24.9885 27.0795V32.4516H29.9655V37.4028H24.9885V42.3541H20.0115V27.0795C18.5534 26.5705 17.2907 25.6224 16.3988 24.3669C15.5069 23.1115 15.0301 21.6109 15.0346 20.0735C15.0346 18.1038 15.8211 16.2147 17.2211 14.8219C18.6212 13.4291 20.5201 12.6466 22.5 12.6466ZM22.5 17.5979C21.84 17.5979 21.2071 17.8587 20.7404 18.323C20.2737 18.7872 20.0115 19.4169 20.0115 20.0735C20.0115 20.7301 20.2737 21.3598 20.7404 21.824C21.2071 22.2883 21.84 22.5491 22.5 22.5491C23.16 22.5491 23.793 22.2883 24.2596 21.824C24.7263 21.3598 24.9885 20.7301 24.9885 20.0735C24.9885 19.4169 24.7263 18.7872 24.2596 18.323C23.793 17.8587 23.16 17.5979 22.5 17.5979Z" fill="url(#paint0_diamond)"/>
<defs>
<radialGradient id="paint0_diamond" cx="0" cy="0" r="1" gradientUnits="userSpaceOnUse" gradientTransform="translate(11.4885 29.6979) rotate(0.282769) scale(26.1916 165.327)">
<stop stop-color="#7635DF" stop-opacity="0.76"/>
<stop offset="1" stop-color="#3F08B6" stop-opacity="0.94"/>
</radialGradient>
</defs>
</svg>
