<svg width="46" height="55" viewBox="0 0 46 55" fill="none" xmlns="http://www.w3.org/2000/svg">
<path d="M29.5714 28.8095V23.5714L23 26.1905L16.4286 23.5714V28.8095L9.85714 31.4286L16.4286 34.0476V39.2857L23 36.6667L29.5714 39.2857V34.0476L36.1429 31.4286L29.5714 28.8095ZM29.5714 0H6.57143C4.82858 0 3.15711 0.551869 1.92473 1.5342C0.692345 2.51654 0 3.84887 0 5.2381V41.9048C0 43.294 0.692345 44.6263 1.92473 45.6087C3.15711 46.591 4.82858 47.1429 6.57143 47.1429H9.85714V41.9048H6.57143V5.2381H26.2857V15.7143H39.4286V41.9048H36.1429V47.1429H39.4286C41.1714 47.1429 42.8429 46.591 44.0753 45.6087C45.3077 44.6263 46 43.294 46 41.9048V13.0952L29.5714 0ZM29.5714 28.8095V23.5714L23 26.1905L16.4286 23.5714V28.8095L9.85714 31.4286L16.4286 34.0476V39.2857L23 36.6667L29.5714 39.2857V34.0476L36.1429 31.4286L29.5714 28.8095ZM16.4286 55L23 52.381L29.5714 55V41.9048H16.4286V55ZM29.5714 28.8095V23.5714L23 26.1905L16.4286 23.5714V28.8095L9.85714 31.4286L16.4286 34.0476V39.2857L23 36.6667L29.5714 39.2857V34.0476L36.1429 31.4286L29.5714 28.8095Z" fill="url(#paint0_diamond)"/>
<defs>
<radialGradient id="paint0_diamond" cx="0" cy="0" r="1" gradientUnits="userSpaceOnUse" gradientTransform="translate(11.6917 29.7191) rotate(0.278058) scale(26.8975 166.955)">
<stop stop-color="#7635DF" stop-opacity="0.76"/>
<stop offset="1" stop-color="#3F08B6" stop-opacity="0.94"/>
</radialGradient>
</defs>
</svg>
