<svg width="100" height="95" viewBox="0 0 100 95" fill="none" xmlns="http://www.w3.org/2000/svg">
<g clip-path="url(#clip0)">
<path d="M82.8125 -1.875L72.6562 14.4531L62.4219 31.0938H37.8125L37.8906 30.9375L47.6562 15.2344L58.2812 -1.875H82.8125Z" fill="url(#paint0_linear)"/>
<path opacity="0.2" d="M80 -1.875L61.0937 28.5938H42.0312L61.0937 -1.875H58.3594L47.6562 15.2344L37.8125 30.9375H62.3438L72.6562 14.4531L82.8906 -1.875H80Z" fill="#424242"/>
<path d="M64.0625 21.5625H35.9375C32.5 21.5625 29.6875 24.375 29.6875 27.8125V40.3125C29.6875 42.0312 31.0938 43.4375 32.8125 43.4375C34.5312 43.4375 36.7188 42.0312 36.7188 40.3125V32.5C36.7188 31.6406 37.4219 30.9375 38.2812 30.9375H61.7188C62.5781 30.9375 63.2812 31.6406 63.2812 32.5V40.2344C63.2812 41.7969 65.0781 43.125 66.5625 43.3594C66.7969 43.3594 66.9531 43.4375 67.1875 43.4375C68.9062 43.4375 70.3125 42.0312 70.3125 40.3125V27.8125C70.3125 24.375 67.5 21.5625 64.0625 21.5625Z" fill="#FDD835"/>
<path opacity="0.2" d="M64.0625 23.125C66.6406 23.125 68.75 25.2344 68.75 27.8125V40.3125C68.75 41.1719 68.0469 41.875 67.1875 41.875H66.875C65.9375 41.7188 64.8438 40.8594 64.8438 40.2344V32.5C64.8438 30.7812 63.4375 29.375 61.7188 29.375H38.2812C36.5625 29.375 35.1562 30.7812 35.1562 32.5V40.3125C35.1562 41.0156 33.9062 41.875 32.8125 41.875C31.9531 41.875 31.25 41.1719 31.25 40.3125V27.8125C31.25 25.2344 33.3594 23.125 35.9375 23.125H64.0625ZM64.0625 21.5625H35.9375C32.5 21.5625 29.6875 24.375 29.6875 27.8125V40.3125C29.6875 42.0312 31.0938 43.4375 32.8125 43.4375C34.5312 43.4375 36.7188 42.0312 36.7188 40.3125V32.5C36.7188 31.6406 37.4219 30.9375 38.2812 30.9375H61.7188C62.5781 30.9375 63.2812 31.6406 63.2812 32.5V40.2344C63.2812 41.7969 65.0781 43.125 66.5625 43.3594C66.7969 43.3594 66.9531 43.4375 67.1875 43.4375C68.9062 43.4375 70.3125 42.0312 70.3125 40.3125V27.8125C70.3125 24.375 67.5 21.5625 64.0625 21.5625Z" fill="#424242"/>
<path d="M62.4219 31.0938H37.8125L17.4219 -1.875H42.0312L62.4219 31.0938Z" fill="url(#paint1_linear)"/>
<path opacity="0.2" d="M41.875 -1.875H39.0625L58.2031 28.5938H39.1406L20.0781 -1.875H17.3438L37.8125 30.9375H62.3438L41.875 -1.875Z" fill="#424242"/>
<path d="M50 91.875C66.396 91.875 79.6875 78.5835 79.6875 62.1875C79.6875 45.7915 66.396 32.5 50 32.5C33.604 32.5 20.3125 45.7915 20.3125 62.1875C20.3125 78.5835 33.604 91.875 50 91.875Z" fill="url(#paint2_radial)"/>
<path opacity="0.2" d="M50 34.8438C65.0781 34.8438 77.3438 47.1094 77.3438 62.1875C77.3438 77.2656 65.0781 89.5312 50 89.5312C34.9219 89.5312 22.6562 77.2656 22.6562 62.1875C22.6562 47.1094 34.9219 34.8438 50 34.8438ZM50 32.5C33.5938 32.5 20.3125 45.7812 20.3125 62.1875C20.3125 78.5938 33.5938 91.875 50 91.875C66.4062 91.875 79.6875 78.5938 79.6875 62.1875C79.6875 45.7812 66.4062 32.5 50 32.5Z" fill="#424242"/>
<path d="M40.9375 51.4062V56.7187L48.5937 54.375V78.6719H55V46.4062L40.9375 51.4062Z" fill="#FFA000"/>
</g>
<defs>
<linearGradient id="paint0_linear" x1="68.1094" y1="-3.09844" x2="56.4453" y2="23.3914" gradientUnits="userSpaceOnUse">
<stop offset="0.136" stop-color="#1E88E5"/>
<stop offset="0.938" stop-color="#1565C0"/>
</linearGradient>
<linearGradient id="paint1_linear" x1="33.4352" y1="0.11875" x2="46.9523" y2="30.3148" gradientUnits="userSpaceOnUse">
<stop offset="0.136" stop-color="#64B5F6"/>
<stop offset="0.946" stop-color="#2196F3"/>
</linearGradient>
<radialGradient id="paint2_radial" cx="0" cy="0" r="1" gradientUnits="userSpaceOnUse" gradientTransform="translate(33.5937 39.9219) scale(56.7008)">
<stop offset="0.297" stop-color="#FFEB3B"/>
<stop offset="0.954" stop-color="#FBC02D"/>
</radialGradient>
<clipPath id="clip0">
<rect width="100" height="95" fill="white"/>
</clipPath>
</defs>
</svg>
