<svg width="90" height="84" viewBox="0 0 90 84" fill="none" xmlns="http://www.w3.org/2000/svg">
<g clip-path="url(#clip0)">
<path d="M74.5312 -3.1875L65.3906 11.5078L56.1797 26.4844H34.0312L34.1016 26.3438L42.8906 12.2109L52.4531 -3.1875H74.5312Z" fill="url(#paint0_linear)"/>
<path opacity="0.2" d="M72 -3.1875L54.9844 24.2344H37.8281L54.9844 -3.1875H52.5234L42.8906 12.2109L34.0312 26.3438H56.1094L65.3906 11.5078L74.6016 -3.1875H72Z" fill="#424242"/>
<path d="M57.6562 17.9062H32.3438C29.25 17.9062 26.7188 20.4375 26.7188 23.5312V34.7812C26.7188 36.3281 27.9844 37.5938 29.5312 37.5938C31.0781 37.5938 33.0469 36.3281 33.0469 34.7812V27.75C33.0469 26.9766 33.6797 26.3438 34.4531 26.3438H55.5469C56.3203 26.3438 56.9531 26.9766 56.9531 27.75V34.7109C56.9531 36.1172 58.5703 37.3125 59.9062 37.5234C60.1172 37.5234 60.2578 37.5938 60.4688 37.5938C62.0156 37.5938 63.2812 36.3281 63.2812 34.7812V23.5312C63.2812 20.4375 60.75 17.9062 57.6562 17.9062Z" fill="#BDBDBD"/>
<path opacity="0.2" d="M57.6562 19.3125C59.9766 19.3125 61.875 21.2109 61.875 23.5312V34.7812C61.875 35.5547 61.2422 36.1875 60.4688 36.1875H60.1875C59.3438 36.0469 58.3594 35.2734 58.3594 34.7109V27.75C58.3594 26.2031 57.0938 24.9375 55.5469 24.9375H34.4531C32.9062 24.9375 31.6406 26.2031 31.6406 27.75V34.7812C31.6406 35.4141 30.5156 36.1875 29.5312 36.1875C28.7578 36.1875 28.125 35.5547 28.125 34.7812V23.5312C28.125 21.2109 30.0234 19.3125 32.3438 19.3125H57.6562ZM57.6562 17.9062H32.3438C29.25 17.9062 26.7188 20.4375 26.7188 23.5312V34.7812C26.7188 36.3281 27.9844 37.5938 29.5312 37.5938C31.0781 37.5938 33.0469 36.3281 33.0469 34.7812V27.75C33.0469 26.9766 33.6797 26.3438 34.4531 26.3438H55.5469C56.3203 26.3438 56.9531 26.9766 56.9531 27.75V34.7109C56.9531 36.1172 58.5703 37.3125 59.9062 37.5234C60.1172 37.5234 60.2578 37.5938 60.4688 37.5938C62.0156 37.5938 63.2812 36.3281 63.2812 34.7812V23.5312C63.2812 20.4375 60.75 17.9062 57.6562 17.9062Z" fill="#424242"/>
<path d="M56.1797 26.4844H34.0313L25.2422 12.2109L15.6797 -3.1875H37.8281L47.8125 12.9844L56.1094 26.3438L56.1797 26.4844Z" fill="url(#paint1_linear)"/>
<path opacity="0.2" d="M47.8125 12.9844L37.6875 -3.1875H35.1562L52.3828 24.2344H35.2266L18.0703 -3.1875H15.6094L25.2422 12.2109L34.0312 26.3438H56.1094L47.8125 12.9844Z" fill="#424242"/>
<path d="M45 81.1875C59.7564 81.1875 71.7188 69.2251 71.7188 54.4688C71.7188 39.7124 59.7564 27.75 45 27.75C30.2436 27.75 18.2812 39.7124 18.2812 54.4688C18.2812 69.2251 30.2436 81.1875 45 81.1875Z" fill="url(#paint2_radial)"/>
<path opacity="0.2" d="M45 29.8594C58.5703 29.8594 69.6094 40.8984 69.6094 54.4688C69.6094 68.0391 58.5703 79.0781 45 79.0781C31.4297 79.0781 20.3906 68.0391 20.3906 54.4688C20.3906 40.8984 31.4297 29.8594 45 29.8594ZM45 27.75C30.2344 27.75 18.2812 39.7031 18.2812 54.4688C18.2812 69.2344 30.2344 81.1875 45 81.1875C59.7656 81.1875 71.7188 69.2344 71.7188 54.4688C71.7188 39.7031 59.7656 27.75 45 27.75Z" fill="#424242"/>
<path d="M35.5781 48.9141C35.5781 48.9141 35.5078 39.6328 45.4922 39.6328C55.4766 39.6328 54.4922 48.2812 54.4922 48.2812C54.5625 53.4844 46.9688 59.3906 43.4531 63.6094H55.5469V68.25H36.211V64.3125C39.375 60.7969 48.8672 51.8672 48.8672 48.9844C48.8672 48.9844 49.6406 44.2031 45.3516 44.2031C41.0625 44.2031 41.2735 48.9141 41.2735 48.9141H35.5781Z" fill="#757575"/>
</g>
<defs>
<linearGradient id="paint0_linear" x1="63.0169" y1="-3.9982" x2="50.8507" y2="17.7825" gradientUnits="userSpaceOnUse">
<stop offset="0.136" stop-color="#1E88E5"/>
<stop offset="0.938" stop-color="#1565C0"/>
</linearGradient>
<linearGradient id="paint1_linear" x1="28.4259" y1="-2.36555" x2="43.9277" y2="26.5772" gradientUnits="userSpaceOnUse">
<stop offset="0.136" stop-color="#64B5F6"/>
<stop offset="0.946" stop-color="#2196F3"/>
</linearGradient>
<radialGradient id="paint2_radial" cx="0" cy="0" r="1" gradientUnits="userSpaceOnUse" gradientTransform="translate(30.2344 38.4727) scale(48.8616)">
<stop offset="0.283" stop-color="#EEEEEE"/>
<stop offset="1" stop-color="#BDBDBD"/>
</radialGradient>
<clipPath id="clip0">
<rect width="90" height="84" fill="white"/>
</clipPath>
</defs>
</svg>
