<svg width="80" height="76" viewBox="0 0 80 76" fill="none" xmlns="http://www.w3.org/2000/svg">
<g clip-path="url(#clip0)">
<path d="M66.25 -1.5L58.125 11.5625L49.9375 24.875H30.25L30.3125 24.75L38.125 12.1875L46.625 -1.5H66.25Z" fill="url(#paint0_linear)"/>
<path opacity="0.2" d="M64 -1.5L48.875 22.875H33.625L48.875 -1.5H46.6875L38.125 12.1875L30.25 24.75H49.875L58.125 11.5625L66.3125 -1.5H64Z" fill="#424242"/>
<path d="M51.25 17.25H28.75C26 17.25 23.75 19.5 23.75 22.25V32.25C23.75 33.625 24.875 34.75 26.25 34.75C27.625 34.75 29.375 33.625 29.375 32.25V26C29.375 25.3125 29.9375 24.75 30.625 24.75H49.375C50.0625 24.75 50.625 25.3125 50.625 26V32.1875C50.625 33.4375 52.0625 34.5 53.25 34.6875C53.4375 34.6875 53.5625 34.75 53.75 34.75C55.125 34.75 56.25 33.625 56.25 32.25V22.25C56.25 19.5 54 17.25 51.25 17.25Z" fill="#FF9800"/>
<path opacity="0.2" d="M51.25 18.5C53.3125 18.5 55 20.1875 55 22.25V32.25C55 32.9375 54.4375 33.5 53.75 33.5H53.5C52.75 33.375 51.875 32.6875 51.875 32.1875V26C51.875 24.625 50.75 23.5 49.375 23.5H30.625C29.25 23.5 28.125 24.625 28.125 26V32.25C28.125 32.8125 27.125 33.5 26.25 33.5C25.5625 33.5 25 32.9375 25 32.25V22.25C25 20.1875 26.6875 18.5 28.75 18.5H51.25ZM51.25 17.25H28.75C26 17.25 23.75 19.5 23.75 22.25V32.25C23.75 33.625 24.875 34.75 26.25 34.75C27.625 34.75 29.375 33.625 29.375 32.25V26C29.375 25.3125 29.9375 24.75 30.625 24.75H49.375C50.0625 24.75 50.625 25.3125 50.625 26V32.1875C50.625 33.4375 52.0625 34.5 53.25 34.6875C53.4375 34.6875 53.5625 34.75 53.75 34.75C55.125 34.75 56.25 33.625 56.25 32.25V22.25C56.25 19.5 54 17.25 51.25 17.25Z" fill="#424242"/>
<path d="M40.0625 73.5C53.1793 73.5 63.8125 62.8668 63.8125 49.75C63.8125 36.6332 53.1793 26 40.0625 26C26.9457 26 16.3125 36.6332 16.3125 49.75C16.3125 62.8668 26.9457 73.5 40.0625 73.5Z" fill="url(#paint1_radial)"/>
<path d="M48.9375 55.5C48.9375 50.3125 44.5625 49.3125 44.5625 49.3125C44.5625 49.3125 48.5 47.6875 48.5 43.4375C48.5 43.4375 48.9375 36 39.625 36C33.625 36 30.8125 39.6875 30.8125 43.1875H36.0625C36.0625 43.1875 36.0625 40.25 39.75 40.25C43.375 40.25 43.25 43.6875 43.25 43.6875C43.25 43.6875 43.4375 47.375 39.625 47.375H36.4375V51.5H39.6875C43.625 51.5 43.625 55.1875 43.625 55.1875C43.625 55.1875 44.0625 59.0625 39.8125 59.0625C35.8125 59.0625 35.75 55.8125 35.75 55.8125H30.5C30.5 59.75 33.4375 63.375 39.6875 63.375C49.1875 63.3125 48.9375 55.875 48.9375 55.5Z" fill="#66210C"/>
<path d="M49.9375 24.875H30.25L13.9375 -1.5H33.625L49.9375 24.875Z" fill="url(#paint2_linear)"/>
<path opacity="0.2" d="M33.5 -1.5H31.25L46.5625 22.875H31.3125L16.0625 -1.5H13.875L30.25 24.75H49.875L33.5 -1.5Z" fill="#424242"/>
<path opacity="0.2" d="M40 27.875C52.0625 27.875 61.875 37.6875 61.875 49.75C61.875 61.8125 52.0625 71.625 40 71.625C27.9375 71.625 18.125 61.8125 18.125 49.75C18.125 37.6875 27.9375 27.875 40 27.875ZM40 26C26.875 26 16.25 36.625 16.25 49.75C16.25 62.875 26.875 73.5 40 73.5C53.125 73.5 63.75 62.875 63.75 49.75C63.75 36.625 53.125 26 40 26Z" fill="#424242"/>
</g>
<defs>
<linearGradient id="paint0_linear" x1="58.28" y1="-2.20312" x2="43.7162" y2="18.0294" gradientUnits="userSpaceOnUse">
<stop offset="0.136" stop-color="#1E88E5"/>
<stop offset="0.938" stop-color="#1565C0"/>
</linearGradient>
<radialGradient id="paint1_radial" cx="0" cy="0" r="1" gradientUnits="userSpaceOnUse" gradientTransform="translate(29.7206 37.8975) scale(46.1338)">
<stop offset="0.267" stop-color="#D8860F"/>
<stop offset="1" stop-color="#C46E03"/>
</radialGradient>
<linearGradient id="paint2_linear" x1="26.1138" y1="-0.829375" x2="37.8" y2="24.2875" gradientUnits="userSpaceOnUse">
<stop offset="0.136" stop-color="#64B5F6"/>
<stop offset="0.946" stop-color="#2196F3"/>
</linearGradient>
<clipPath id="clip0">
<rect width="80" height="76" fill="white"/>
</clipPath>
</defs>
</svg>
