<svg width="10" height="10" viewBox="0 0 10 10" fill="none" xmlns="http://www.w3.org/2000/svg">
<g clip-path="url(#clip0)">
<path d="M2.54054 0.159839L2.2107 0.487403C2.10769 0.590493 2.05094 0.727648 2.05094 0.874235C2.05094 1.02074 2.10769 1.15806 2.2107 1.26115L5.94748 4.99776L2.20655 8.73869C2.10354 8.84162 2.04688 8.97894 2.04688 9.12544C2.04688 9.27195 2.10354 9.40935 2.20655 9.51235L2.53436 9.84C2.74753 10.0533 3.09477 10.0533 3.30794 9.84L7.77798 5.38598C7.88091 5.28305 7.95343 5.1459 7.95343 4.99809L7.95343 4.99638C7.95343 4.8498 7.88082 4.71264 7.77798 4.60971L3.32006 0.159839C3.21713 0.0567484 3.07583 0.000163091 2.92932 1.05231e-08C2.78273 8.77504e-09 2.64338 0.0567484 2.54054 0.159839Z" fill="#A2A2A2"/>
</g>
<defs>
<clipPath id="clip0">
<rect width="10" height="10" fill="white" transform="translate(0 10) rotate(-90)"/>
</clipPath>
</defs>
</svg>
