<svg width="31" height="24" viewBox="0 0 31 24" fill="none" xmlns="http://www.w3.org/2000/svg">
<path d="M12.0011 24.0009C18.6283 24.0009 24.0006 18.6285 24.0006 12.0014C24.0006 5.3743 18.6283 0.00195312 12.0011 0.00195312C5.37401 0.00195312 0.00166321 5.3743 0.00166321 12.0014C0.00166321 18.6285 5.37401 24.0009 12.0011 24.0009Z" fill="white"/>
<path d="M0 12C0 16.5105 2.48988 20.4377 6.16866 22.4875V1.51196C2.48988 3.56205 0 7.48905 0 12Z" fill="#D32027"/>
<path d="M11.9997 23.9999C11.8616 23.9999 11.7287 23.9952 11.5933 23.9929C11.7279 23.9974 11.8634 23.9999 11.9997 23.9999Z" fill="white"/>
<path d="M11.9997 0C11.9959 0 11.9927 0.000202668 11.9889 0.000202668C11.9926 0.000202668 11.996 0 11.9997 0C18.6273 0 18.6273 24 11.9997 24C14.1127 24 16.0967 23.4518 17.8213 22.4931V1.50668C16.0966 0.547964 14.1127 0 11.9997 0Z" fill="#E7E7E7"/>
<path d="M17.8212 1.50659V22.4928C21.5055 20.4444 23.9998 16.5142 23.9998 12C23.9998 7.48525 21.5056 3.55501 17.8212 1.50659Z" fill="#B52025"/>
<path d="M11.9997 0C11.9959 0 11.9927 0 11.9889 0C9.8763 0.00187468 7.89233 0.551764 6.16849 1.512V22.4874C7.78411 23.3876 9.62864 23.9272 11.5933 23.9926C11.7288 23.9949 11.8616 23.9996 11.9997 23.9996C18.6273 23.9998 18.6273 0 11.9997 0Z" fill="#F3F1F2"/>
<path d="M16.6565 11.7832C16.4915 11.6256 16.1529 11.643 16.0924 11.381C16.0125 10.7373 16.3086 10.3625 16.4955 9.93243C15.55 10.1535 14.8046 10.5175 14.8054 9.44968C14.2625 10.1134 13.6789 10.7771 13.4379 10.6566C13.0955 10.4554 13.7664 8.74713 13.8398 7.84064C13.5086 7.99184 12.8742 8.3234 12.8742 8.3234C12.8742 8.3234 12.2976 7.19565 11.9924 6.63938V6.6333C11.9913 6.63442 11.9913 6.63538 11.9909 6.63634C11.9901 6.63558 11.9901 6.63447 11.9894 6.6333V6.63938C11.6838 7.19565 11.1076 8.3234 11.1076 8.3234C11.1076 8.3234 10.4728 7.99184 10.142 7.84064C10.215 8.74728 10.8859 10.4556 10.5435 10.6566C10.3023 10.7773 9.71889 10.1134 9.17645 9.44968C9.17645 10.5175 8.43144 10.1536 7.48635 9.93243C7.6728 10.3623 7.96895 10.7371 7.88824 11.381C7.82875 11.643 7.48994 11.6256 7.32492 11.7832C8.42176 12.8797 10.3228 13.6941 9.41727 14.5993L11.8586 14.3716C11.9386 15.1965 11.6803 16.2089 11.9045 16.7722C11.957 16.7722 11.9397 16.7722 11.9892 16.7722C11.9899 16.7722 11.9911 16.7722 11.9922 16.7722C12.0415 16.7722 12.0233 16.7722 12.0754 16.7722C12.3041 16.1886 12.0428 15.1967 12.1228 14.3716L14.5638 14.5993C13.6591 13.6941 15.5601 12.8797 16.6565 11.7832Z" fill="#D32027"/>
<rect x="17" width="14" height="14" rx="7" fill="#3CAA34"/>
<g clip-path="url(#clip0)">
<path d="M26.3333 5.25L23.125 8.45833L21.6666 7" stroke="white" stroke-width="2" stroke-linecap="round" stroke-linejoin="round"/>
</g>
<defs>
<clipPath id="clip0">
<rect width="7" height="7" fill="white" transform="translate(20.5 3.5)"/>
</clipPath>
</defs>
</svg>
