<svg width="35" height="35" viewBox="0 0 35 35" fill="none" xmlns="http://www.w3.org/2000/svg">
<path d="M31.2402 5.46875H30.2148V3.07617C30.2148 1.37997 28.8349 0 27.1387 0C25.4425 0 24.0625 1.37997 24.0625 3.07617V3.91597C24.0625 4.97854 23.349 5.92457 22.3272 6.21646L21.3281 6.50193V6.49414C21.3281 5.92785 20.869 5.46875 20.3027 5.46875H16.2012C15.6349 5.46875 15.1758 5.92785 15.1758 6.49414V11.0742H3.07617C1.37997 11.0742 0 12.4542 0 14.1504V33.9746C0 34.3528 0.208154 34.7002 0.541543 34.8787C0.693164 34.9599 0.859414 35 1.02532 35C1.22425 35 1.42263 34.9422 1.59414 34.8277L5.43744 32.2656H24.9512C26.6474 32.2656 28.0273 30.8857 28.0273 29.1895V18.457H31.2402C33.3134 18.457 35 16.7704 35 14.6973V9.22852C35 7.15538 33.3134 5.46875 31.2402 5.46875ZM17.2266 7.51953H19.2773V16.4062H17.2266V7.51953ZM25.9766 29.1895C25.9766 29.7549 25.5166 30.2148 24.9512 30.2148H5.12695C4.92454 30.2148 4.72664 30.2748 4.5582 30.3871L2.05078 32.0587V14.1504C2.05078 13.585 2.51077 13.125 3.07617 13.125H15.1758V17.4316C15.1758 17.9979 15.6349 18.457 16.2012 18.457H20.3027C20.8295 18.457 21.263 18.0596 21.321 17.5483C22.2345 18.1309 23.3086 18.457 24.4256 18.457H25.9766V29.1895ZM32.9492 14.6973C32.9492 15.6396 32.1826 16.4062 31.2402 16.4062H24.4256C23.1788 16.4062 22.0145 15.7773 21.3281 14.7488V8.63481L22.8905 8.18843C24.7881 7.64627 26.1133 5.88937 26.1133 3.91597V3.07617C26.1133 2.51077 26.5733 2.05078 27.1387 2.05078C27.7041 2.05078 28.1641 2.51077 28.1641 3.07617V6.49414C28.1641 7.06043 28.6232 7.51953 29.1895 7.51953H31.2402C32.1826 7.51953 32.9492 8.28618 32.9492 9.22852V14.6973Z" fill="white"/>
<path d="M5.12695 19.2773H11.9629C12.5292 19.2773 12.9883 18.8182 12.9883 18.252C12.9883 17.6857 12.5292 17.2266 11.9629 17.2266H5.12695C4.56066 17.2266 4.10156 17.6857 4.10156 18.252C4.10156 18.8182 4.56066 19.2773 5.12695 19.2773Z" fill="white"/>
<path d="M22.9004 21.3281H5.12695C4.56066 21.3281 4.10156 21.7872 4.10156 22.3535C4.10156 22.9198 4.56066 23.3789 5.12695 23.3789H22.9004C23.4667 23.3789 23.9258 22.9198 23.9258 22.3535C23.9258 21.7872 23.4667 21.3281 22.9004 21.3281Z" fill="white"/>
<path d="M22.9004 25.4297H5.12695C4.56066 25.4297 4.10156 25.8888 4.10156 26.4551C4.10156 27.0214 4.56066 27.4805 5.12695 27.4805H22.9004C23.4667 27.4805 23.9258 27.0214 23.9258 26.4551C23.9258 25.8888 23.4667 25.4297 22.9004 25.4297Z" fill="white"/>
</svg>
