<svg width="44" height="44" viewBox="0 0 44 44" fill="none" xmlns="http://www.w3.org/2000/svg">
<path d="M22.0009 43.9999C34.1506 43.9999 43.9999 34.1506 43.9999 22.0009C43.9999 9.85116 34.1506 0.00186157 22.0009 0.00186157C9.85113 0.00186157 0.00183105 9.85116 0.00183105 22.0009C0.00183105 34.1506 9.85113 43.9999 22.0009 43.9999Z" fill="white"/>
<path d="M0.00012207 22.0001C0.00012207 30.2692 4.5649 37.4691 11.3093 41.2272V2.772C4.5649 6.5305 0.00012207 13.73 0.00012207 22.0001Z" fill="#D32027"/>
<path d="M21.9996 43.9996C21.7464 43.9996 21.5028 43.991 21.2545 43.9868C21.5013 43.9951 21.7496 43.9996 21.9996 43.9996Z" fill="white"/>
<path d="M21.9996 0C21.9927 0 21.9868 0.000371558 21.9799 0.000371558C21.9866 0.000371558 21.9929 0 21.9996 0C34.1502 0 34.1502 44 21.9996 44C25.8735 44 29.5108 42.995 32.6725 41.2374V2.76226C29.5107 1.0046 25.8734 0 21.9996 0Z" fill="#E7E7E7"/>
<path d="M32.6724 2.76225V41.237C39.4269 37.4816 43.9997 30.2761 43.9997 22.0001C43.9997 13.7231 39.427 6.51768 32.6724 2.76225Z" fill="#B52025"/>
<path d="M21.9996 0C21.9927 0 21.9868 0 21.9799 0C18.1067 0.00343691 14.4695 1.01157 11.3091 2.77201V41.227C14.271 42.8773 17.6527 43.8666 21.2546 43.9864C21.503 43.9906 21.7464 43.9993 21.9996 43.9993C34.1501 43.9996 34.1501 0 21.9996 0Z" fill="#F3F1F2"/>
<path d="M30.5371 21.6024C30.2346 21.3134 29.6138 21.3454 29.503 20.8649C29.3564 19.685 29.8994 18.9979 30.2418 18.2093C28.5085 18.6147 27.1419 19.282 27.1433 17.3243C26.1481 18.5411 25.0782 19.7579 24.6363 19.537C24.0087 19.1681 25.2386 16.0363 25.3731 14.3744C24.7659 14.6516 23.6029 15.2594 23.6029 15.2594C23.6029 15.2594 22.5458 13.1919 21.9863 12.1721V12.1609C21.9842 12.1629 21.9842 12.1647 21.9835 12.1665C21.9821 12.1651 21.9821 12.163 21.9807 12.1609V12.1721C21.4204 13.1919 20.3641 15.2594 20.3641 15.2594C20.3641 15.2594 19.2003 14.6516 18.5939 14.3744C18.7276 16.0365 19.9577 19.1684 19.3299 19.537C18.8878 19.7582 17.8181 18.5411 16.8237 17.3243C16.8237 19.282 15.4578 18.6148 13.7251 18.2093C14.067 18.9975 14.6099 19.6846 14.4619 20.8649C14.3529 21.3454 13.7317 21.3134 13.4292 21.6024C15.4401 23.6126 18.9253 25.1056 17.2652 26.7653L21.741 26.3477C21.8875 27.8602 21.4141 29.7162 21.825 30.7488C21.9213 30.7488 21.8897 30.7488 21.9803 30.7488C21.9817 30.7488 21.9838 30.7488 21.9859 30.7488C22.0762 30.7488 22.0428 30.7488 22.1384 30.7488C22.5577 29.6789 22.0787 27.8604 22.2253 26.3477L26.7004 26.7653C25.0419 25.1056 28.527 23.6126 30.5371 21.6024Z" fill="#D32027"/>
</svg>
