<svg width="31" height="31" viewBox="0 0 31 31" fill="none" xmlns="http://www.w3.org/2000/svg">
<path d="M30.3511 15.2607L17.144 2.06054L16.2588 1.17529C16.0571 0.974915 15.7843 0.862457 15.5 0.862457C15.2157 0.862457 14.9429 0.974915 14.7412 1.17529L0.648921 15.2607C0.44224 15.4666 0.278896 15.7118 0.168532 15.9819C0.0581682 16.2519 0.00301993 16.5413 0.00634246 16.833C0.0200143 18.0361 1.02148 18.9966 2.2246 18.9966H3.67724V30.1289H27.3228V18.9966H28.8062C29.3906 18.9966 29.9409 18.7676 30.3545 18.354C30.5581 18.151 30.7195 17.9096 30.8292 17.6439C30.9389 17.3781 30.9948 17.0932 30.9937 16.8057C30.9937 16.2246 30.7646 15.6743 30.3511 15.2607ZM17.4141 27.668H13.5859V20.6953H17.4141V27.668ZM24.8618 16.5356V27.668H19.6016V19.875C19.6016 19.1196 18.9897 18.5078 18.2344 18.5078H12.7656C12.0103 18.5078 11.3984 19.1196 11.3984 19.875V27.668H6.13818V16.5356H2.85693L15.5034 3.89941L16.293 4.68896L28.1465 16.5356H24.8618Z" fill="white" fill-opacity="0.61"/>
</svg>
