<svg width="24" height="24" viewBox="0 0 24 24" fill="none" xmlns="http://www.w3.org/2000/svg">
<circle cx="12" cy="12" r="12" fill="#02B865"/>
<g clip-path="url(#clip0)">
<path d="M16.3182 11.0909H12.9091V7.68182C12.9091 7.30545 12.6036 7 12.2272 7H11.7727C11.3964 7 11.0909 7.30545 11.0909 7.68182V11.0909H7.68182C7.30545 11.0909 7 11.3964 7 11.7727V12.2272C7 12.6036 7.30545 12.9091 7.68182 12.9091H11.0909V16.3182C11.0909 16.6945 11.3964 17 11.7727 17H12.2272C12.6036 17 12.9091 16.6945 12.9091 16.3182V12.9091H16.3182C16.6945 12.9091 17 12.6036 17 12.2272V11.7727C17 11.3964 16.6945 11.0909 16.3182 11.0909Z" fill="white"/>
</g>
<defs>
<clipPath id="clip0">
<rect width="10" height="10" fill="white" transform="translate(7 7)"/>
</clipPath>
</defs>
</svg>
