<svg width="24" height="24" viewBox="0 0 24 24" fill="none" xmlns="http://www.w3.org/2000/svg">
<circle cx="12" cy="12" r="12" fill="#E5383B"/>
<g clip-path="url(#clip0)">
<path d="M14.4106 8.30378L12 10.7144L9.58941 8.30378C9.32328 8.03765 8.89131 8.03765 8.62518 8.30378L8.30378 8.62517C8.03765 8.8913 8.03765 9.32328 8.30378 9.58941L10.7144 12L8.30378 14.4106C8.03765 14.6767 8.03765 15.1087 8.30378 15.3748L8.62518 15.6962C8.89131 15.9624 9.32328 15.9624 9.58941 15.6962L12 13.2856L14.4106 15.6962C14.6767 15.9624 15.1087 15.9624 15.3748 15.6962L15.6962 15.3748C15.9624 15.1087 15.9624 14.6767 15.6962 14.4106L13.2856 12L15.6962 9.58941C15.9624 9.32328 15.9624 8.8913 15.6962 8.62517L15.3748 8.30378C15.1087 8.03765 14.6767 8.03765 14.4106 8.30378Z" fill="white"/>
</g>
<defs>
<clipPath id="clip0">
<rect width="10" height="10" fill="white" transform="translate(4.92896 12) rotate(-45)"/>
</clipPath>
</defs>
</svg>
