<svg width="39" height="44" viewBox="0 0 39 44" fill="none" xmlns="http://www.w3.org/2000/svg">
<g clip-path="url(#clip0)">
<path d="M29.8745 37.3828C24.9703 37.3828 20.9804 32.7566 20.9804 27.0703C20.9804 15.456 25.0331 7.75182 25.2056 7.42955L25.6404 6.61719H32.132L31.5971 8.80473C31.0743 10.9429 30.2451 14.806 30.2451 16.0703C30.2451 16.3788 30.253 16.6044 30.2637 16.768C32.5221 16.8806 34.6305 17.9677 36.2209 19.8456C37.8638 21.7854 38.7686 24.3512 38.7686 27.0703C38.7686 32.7566 34.7787 37.3828 29.8745 37.3828ZM27.3406 10.0547C26.3788 12.2174 23.9451 18.535 23.9451 27.0703C23.9451 30.8612 26.605 33.9453 29.8745 33.9453C33.144 33.9453 35.8039 30.8612 35.8039 27.0703C35.8039 23.3524 33.1968 20.269 29.9921 20.1971L29.9278 20.1953C28.6274 20.1871 27.9934 19.4129 27.6903 18.7628C27.3501 18.033 27.2804 17.1586 27.2804 16.0703C27.2804 14.6988 27.8136 11.9955 28.2395 10.0547H27.3406ZM9.71445 37.3828C4.81022 37.3828 0.820312 32.7566 0.820312 27.0703C0.820312 15.456 4.87308 7.75182 5.04555 7.42955L5.4804 6.61719H11.9719L11.437 8.80473C10.9143 10.9429 10.085 14.806 10.085 16.0703C10.085 16.3788 10.093 16.6044 10.1036 16.768C12.3621 16.8806 14.4704 17.9677 16.0609 19.8456C17.7038 21.7854 18.6086 24.3512 18.6086 27.0703C18.6086 32.7566 14.6187 37.3828 9.71445 37.3828ZM7.18051 10.0547C6.21876 12.2174 3.78503 18.535 3.78503 27.0703C3.78503 30.8612 6.44497 33.9453 9.71445 33.9453C12.9839 33.9453 15.6439 30.8612 15.6439 27.0703C15.6439 23.3524 13.0367 20.269 9.83208 20.1971L9.76774 20.1953C8.46735 20.1871 7.83334 19.4129 7.53027 18.7628C7.19 18.033 7.12033 17.1586 7.12033 16.0703C7.12033 14.6988 7.65353 11.9955 8.07949 10.0547H7.18051Z" fill="url(#paint0_diamond)"/>
</g>
<defs>
<radialGradient id="paint0_diamond" cx="0" cy="0" r="1" gradientUnits="userSpaceOnUse" gradientTransform="translate(10.4655 23.2413) rotate(0.188541) scale(22.1894 93.391)">
<stop stop-color="#7635DF" stop-opacity="0.76"/>
<stop offset="1" stop-color="#3F08B6" stop-opacity="0.94"/>
</radialGradient>
<clipPath id="clip0">
<rect width="37.9483" height="44" fill="white" transform="translate(0.820312)"/>
</clipPath>
</defs>
</svg>
