<svg width="15" height="15" viewBox="0 0 15 15" fill="none" xmlns="http://www.w3.org/2000/svg">
<path d="M6.61443 0C2.96727 0 0 2.95916 0 6.59639C0 10.2336 2.9673 13.1928 6.61443 13.1928C10.2616 13.1928 13.2289 10.2336 13.2289 6.59639C13.2289 2.95916 10.2616 0 6.61443 0ZM6.61443 12.1084C3.5651 12.1084 1.08433 9.63558 1.08433 6.59636C1.08433 3.55696 3.5651 1.08431 6.61443 1.08431C9.66377 1.08431 12.1445 3.55696 12.1445 6.59636C12.1446 9.63558 9.66379 12.1084 6.61443 12.1084Z" fill="#303030"/>
<path d="M14.8403 14.0358L11.28 10.4937C11.0677 10.2826 10.7245 10.2835 10.5132 10.4957C10.3021 10.708 10.303 11.0512 10.5152 11.2625L14.0754 14.8046C14.1813 14.9098 14.3194 14.9624 14.4578 14.9624C14.5972 14.9624 14.7363 14.9091 14.8422 14.8026C15.0533 14.5903 15.0524 14.2471 14.8403 14.0358Z" fill="#303030"/>
</svg>
