<svg width="18" height="18" viewBox="0 0 18 18" fill="none" xmlns="http://www.w3.org/2000/svg">
<g clip-path="url(#clip0)">
<path d="M14.46 11.0823C14.2351 11.3071 14.1227 11.6444 14.1789 11.9818L14.966 16.4794C15.0784 17.2665 14.2351 17.885 13.5043 17.5476L9.4564 15.4113C9.1753 15.2426 8.83799 15.2426 8.55685 15.4113L4.50899 17.4914C3.77812 17.885 2.93483 17.2665 3.04725 16.4232L3.83433 11.9256C3.89054 11.5883 3.77812 11.2509 3.55323 11.026L0.292487 7.87768C-0.269708 7.31549 0.0113896 6.30352 0.854682 6.19106L5.35232 5.5164C5.68963 5.46019 5.97073 5.29151 6.08319 4.9542L8.10712 0.906337C8.44443 0.175468 9.51265 0.175468 9.90617 0.906337L11.9301 4.9542C12.0988 5.2353 12.3799 5.46019 12.661 5.5164L17.1586 6.19106C17.9457 6.30348 18.283 7.31545 17.7208 7.87768L14.46 11.0823Z" fill="#F2994A"/>
<path d="M14.46 11.0823C14.2351 11.3071 14.1227 11.6445 14.1789 11.9818L14.966 16.4794C15.0784 17.2665 14.2351 17.885 13.5043 17.5476L9.4564 15.4113C9.17531 15.2426 8.838 15.2426 8.55686 15.4113L4.509 17.4914C3.77813 17.885 2.93483 17.2665 3.04726 16.4232L3.60945 13.2187C3.77813 13.2187 3.94676 13.2187 4.11544 13.2187C8.50061 13.2187 12.0987 9.7892 12.3798 5.46024C12.4361 5.51645 12.5485 5.51645 12.6047 5.51645L17.1024 6.1911C17.8894 6.30353 18.2268 7.31549 17.6646 7.87773L14.46 11.0823Z" fill="#F2994A"/>
</g>
<defs>
<clipPath id="clip0">
<rect width="18" height="18" fill="white"/>
</clipPath>
</defs>
</svg>
