<svg width="20" height="20" viewBox="0 0 20 20" fill="none" xmlns="http://www.w3.org/2000/svg">
<g clip-path="url(#clip0)">
<path d="M15.6002 1.06445H9.45946C9.07081 1.06445 8.69756 1.21918 8.42257 1.49417L0.429534 9.48574C-0.143178 10.0584 -0.143178 10.9868 0.429534 11.5603L6.57024 17.701C7.14295 18.2737 8.07131 18.2737 8.64403 17.701L16.6371 9.7094C16.912 9.43367 17.0668 9.06042 17.0668 8.67103V2.53106C17.0668 1.72076 16.4105 1.06445 15.6002 1.06445ZM13.0336 6.19759C12.4264 6.19759 11.9336 5.70481 11.9336 5.09764C11.9336 4.49046 12.4264 3.99768 13.0336 3.99768C13.6408 3.99768 14.1336 4.49046 14.1336 5.09764C14.1336 5.70481 13.6408 6.19759 13.0336 6.19759Z" fill="#B270E7"/>
<path d="M18.5334 2.53125L18.5327 9.35759C18.5327 9.69565 18.3985 10.0205 18.1587 10.2596L10.0366 18.3817L10.1612 18.5063C10.734 19.079 11.6623 19.079 12.235 18.5063L19.5696 11.1733C19.8453 10.8983 20 10.525 20 10.1364V3.99786C20 3.18756 19.3437 2.53125 18.5334 2.53125Z" fill="#B270E7"/>
</g>
<defs>
<clipPath id="clip0">
<rect width="20" height="20" fill="white"/>
</clipPath>
</defs>
</svg>
