<svg width="15" height="15" viewBox="0 0 15 15" fill="none" xmlns="http://www.w3.org/2000/svg">
<path d="M0.00012207 7.5C0.00012207 6.51509 0.183908 5.53982 0.540988 4.62987C0.898068 3.71993 1.42145 2.89314 2.08125 2.1967C3.41377 0.790176 5.22106 0 7.10553 0C8.99 0 10.7973 0.790176 12.1298 2.1967C13.4623 3.60322 14.2109 5.51088 14.2109 7.5C14.2109 8.48491 14.0272 9.46018 13.6701 10.3701C13.313 11.2801 12.7896 12.1069 12.1298 12.8033C11.47 13.4997 10.6867 14.0522 9.82465 14.4291C8.96258 14.806 8.03863 15 7.10553 15C5.22106 15 3.41377 14.2098 2.08125 12.8033C0.748726 11.3968 0.00012207 9.48912 0.00012207 7.5ZM5.68445 11.25L9.23715 7.5L5.68445 3.75V11.25Z" fill="#440AA3" fill-opacity="0.76"/>
</svg>
